<svg width="170" height="228" viewBox="0 0 170 228" fill="none" xmlns="http://www.w3.org/2000/svg">
<g filter="url(#filter0_d)">
<rect x="4" width="162" height="220" rx="20" fill="#F9B43C"/>
</g>
<path d="M29.3555 167.487C29.4727 167.428 29.6484 167.399 29.8828 167.399C30.1172 167.399 30.3223 167.497 30.498 167.692C30.6738 167.868 30.7617 168.073 30.7617 168.307C30.7617 168.737 30.5762 169.05 30.2051 169.245C29.4629 169.675 28.6621 170.026 27.8027 170.3C26.9629 170.573 25.9375 170.71 24.7266 170.71C23.5352 170.71 22.4219 170.514 21.3867 170.124C20.3711 169.733 19.4922 169.167 18.75 168.425C17.1484 166.862 16.3477 164.753 16.3477 162.096C16.3477 159.46 17.1484 157.35 18.75 155.768C20.293 154.245 22.2949 153.483 24.7559 153.483C25.9473 153.483 26.9629 153.63 27.8027 153.923C28.6621 154.216 29.3164 154.489 29.7656 154.743C30.2148 154.977 30.4883 155.173 30.5859 155.329C30.7031 155.466 30.7617 155.651 30.7617 155.885C30.7617 156.12 30.6738 156.335 30.498 156.53C30.3223 156.706 30.1172 156.794 29.8828 156.794C29.668 156.794 29.4922 156.764 29.3555 156.706C28.7109 156.354 28.0469 156.081 27.3633 155.885C26.6992 155.671 25.8691 155.563 24.873 155.563C23.877 155.563 22.9688 155.739 22.1484 156.091C21.3477 156.423 20.6738 156.882 20.127 157.468C19.0527 158.639 18.5254 160.182 18.5449 162.096C18.5449 164.01 19.0723 165.553 20.127 166.725C21.2988 167.995 22.9102 168.63 24.9609 168.63C25.8984 168.63 26.6992 168.532 27.3633 168.337C28.0469 168.122 28.7109 167.839 29.3555 167.487ZM35.8008 160.251C36.9336 158.747 38.1934 157.995 39.5801 157.995H39.6973C39.9902 157.995 40.2344 158.102 40.4297 158.317C40.6445 158.512 40.752 158.766 40.752 159.079C40.752 159.391 40.6445 159.645 40.4297 159.841C40.2148 160.016 39.9512 160.104 39.6387 160.104H39.5215C38.7207 160.104 38.0078 160.3 37.3828 160.69C36.7578 161.081 36.2305 161.589 35.8008 162.214V169.509C35.8008 169.802 35.6934 170.055 35.4785 170.27C35.2637 170.485 35.0098 170.593 34.7168 170.593C34.4238 170.593 34.1699 170.485 33.9551 170.27C33.7402 170.055 33.6328 169.802 33.6328 169.509V159.225C33.6328 158.932 33.7305 158.678 33.9258 158.464C34.1406 158.229 34.4043 158.112 34.7168 158.112C35.0098 158.112 35.2637 158.219 35.4785 158.434C35.6934 158.649 35.8008 158.913 35.8008 159.225V160.251ZM44.3555 165.143C44.4922 166.218 44.9023 167.077 45.5859 167.721C46.2891 168.346 47.2461 168.659 48.457 168.659C49.6875 168.659 50.7324 168.464 51.5918 168.073C51.8652 167.936 52.1094 167.868 52.3242 167.868C52.5391 167.848 52.7344 167.927 52.9102 168.102C53.1055 168.278 53.2031 168.473 53.2031 168.688C53.2031 169.118 53.0273 169.421 52.6758 169.596C52.3438 169.772 52.041 169.928 51.7676 170.065C51.4941 170.202 51.2012 170.319 50.8887 170.417C50.166 170.612 49.3262 170.71 48.3691 170.71C46.3965 170.71 44.8633 170.163 43.7695 169.069C42.6953 167.956 42.1582 166.384 42.1582 164.352C42.1582 162.594 42.6172 161.13 43.5352 159.958C44.5703 158.649 46.0254 157.995 47.9004 157.995C49.6973 157.995 51.1133 158.6 52.1484 159.811C53.125 160.944 53.6133 162.36 53.6133 164.059C53.6133 164.352 53.5059 164.606 53.291 164.821C53.0957 165.036 52.8418 165.143 52.5293 165.143H44.3555ZM47.9004 159.841C46.4746 159.841 45.4395 160.475 44.7949 161.745C44.5605 162.194 44.4141 162.731 44.3555 163.356H51.4453C51.3867 162.223 50.9668 161.325 50.1855 160.661C49.5605 160.114 48.7988 159.841 47.9004 159.841ZM56.9824 158.844C58.3301 158.259 59.7266 157.975 61.1719 157.995C62.793 157.995 64.0527 158.493 64.9512 159.489C65.752 160.348 66.1621 161.423 66.1816 162.712V169.509C66.1816 169.802 66.0645 170.055 65.8301 170.27C65.6152 170.485 65.3516 170.593 65.0391 170.593C64.7461 170.593 64.4922 170.485 64.2773 170.27C64.0625 170.055 63.9551 169.802 63.9551 169.509V168.893C63.5254 169.343 62.9492 169.762 62.2266 170.153C61.5039 170.524 60.5859 170.71 59.4727 170.71C58.3594 170.71 57.4316 170.387 56.6895 169.743C55.9277 169.079 55.5469 168.21 55.5469 167.135C55.5469 165.944 55.9961 165.007 56.8945 164.323C57.8711 163.581 59.2578 163.219 61.0547 163.239H63.9551V163.034C63.9551 161.96 63.6914 161.198 63.1641 160.749C62.6562 160.3 61.8555 160.075 60.7617 160.075C59.8438 160.075 58.7793 160.26 57.5684 160.632C57.4512 160.671 57.3047 160.69 57.1289 160.69C56.9727 160.69 56.8066 160.612 56.6309 160.456C56.4551 160.28 56.3574 160.016 56.3379 159.665C56.3379 159.294 56.5527 159.02 56.9824 158.844ZM57.7441 166.872C57.7441 168.161 58.5938 168.796 60.293 168.776C61.0352 168.776 61.7285 168.6 62.373 168.249C63.0371 167.878 63.5645 167.468 63.9551 167.018V164.997H61.377C60.2441 164.997 59.3555 165.143 58.7109 165.436C58.0664 165.71 57.7441 166.188 57.7441 166.872ZM74.2969 168.776C74.7266 168.776 75.0293 168.747 75.2051 168.688C75.4004 168.61 75.6055 168.571 75.8203 168.571C76.0352 168.571 76.2305 168.659 76.4062 168.835C76.582 168.991 76.6699 169.235 76.6699 169.567C76.6699 169.88 76.5137 170.104 76.2012 170.241C75.5176 170.553 74.9316 170.71 74.4434 170.71C73.9551 170.71 73.5059 170.68 73.0957 170.622C72.7051 170.583 72.3242 170.456 71.9531 170.241C71.0742 169.733 70.6348 168.835 70.6348 167.546V160.104H68.9355C68.6426 160.104 68.4863 159.948 68.4668 159.635C68.4668 159.499 68.5449 159.372 68.7012 159.255L71.9531 156.061C72.0898 155.925 72.2266 155.856 72.3633 155.856C72.5 155.837 72.6074 155.876 72.6855 155.973C72.7637 156.071 72.8027 156.188 72.8027 156.325V158.229H75.5273C75.8008 158.229 76.0254 158.317 76.2012 158.493C76.377 158.669 76.4648 158.893 76.4648 159.167C76.4648 159.44 76.377 159.665 76.2012 159.841C76.0254 160.016 75.8008 160.104 75.5273 160.104H72.8027V167.37C72.8027 167.975 72.9883 168.385 73.3594 168.6C73.5547 168.718 73.8672 168.776 74.2969 168.776ZM80.5078 165.143C80.6445 166.218 81.0547 167.077 81.7383 167.721C82.4414 168.346 83.3984 168.659 84.6094 168.659C85.8398 168.659 86.8848 168.464 87.7441 168.073C88.0176 167.936 88.2617 167.868 88.4766 167.868C88.6914 167.848 88.8867 167.927 89.0625 168.102C89.2578 168.278 89.3555 168.473 89.3555 168.688C89.3555 169.118 89.1797 169.421 88.8281 169.596C88.4961 169.772 88.1934 169.928 87.9199 170.065C87.6465 170.202 87.3535 170.319 87.041 170.417C86.3184 170.612 85.4785 170.71 84.5215 170.71C82.5488 170.71 81.0156 170.163 79.9219 169.069C78.8477 167.956 78.3105 166.384 78.3105 164.352C78.3105 162.594 78.7695 161.13 79.6875 159.958C80.7227 158.649 82.1777 157.995 84.0527 157.995C85.8496 157.995 87.2656 158.6 88.3008 159.811C89.2773 160.944 89.7656 162.36 89.7656 164.059C89.7656 164.352 89.6582 164.606 89.4434 164.821C89.248 165.036 88.9941 165.143 88.6816 165.143H80.5078ZM84.0527 159.841C82.627 159.841 81.5918 160.475 80.9473 161.745C80.7129 162.194 80.5664 162.731 80.5078 163.356H87.5977C87.5391 162.223 87.1191 161.325 86.3379 160.661C85.7129 160.114 84.9512 159.841 84.0527 159.841ZM26.1914 194.622C25.7422 194.68 25.2637 194.71 24.7559 194.71C22.2168 194.71 20.1855 193.909 18.6621 192.307C17.1387 190.706 16.3574 188.635 16.3184 186.096C16.3574 183.557 17.1387 181.487 18.6621 179.885C20.1855 178.284 22.2168 177.483 24.7559 177.483C27.2949 177.483 29.3262 178.284 30.8496 179.885C32.334 181.468 33.1055 183.538 33.1641 186.096C33.125 187.991 32.6758 189.641 31.8164 191.048C30.957 192.434 29.7461 193.44 28.1836 194.065L30.293 196.409C30.4883 196.604 30.5859 196.839 30.5859 197.112C30.6055 197.385 30.5078 197.62 30.293 197.815C30.0977 198.03 29.8535 198.137 29.5605 198.137C29.2676 198.137 29.0137 198.001 28.7988 197.727L26.1914 194.622ZM24.7559 192.659C26.709 192.659 28.2422 192.034 29.3555 190.784C30.4492 189.573 30.9961 188.01 30.9961 186.096C30.9961 184.182 30.4492 182.62 29.3555 181.409C28.2227 180.139 26.6895 179.514 24.7559 179.534C22.8027 179.534 21.2598 180.159 20.127 181.409C19.0332 182.62 18.4961 184.182 18.5156 186.096C18.5156 188.01 19.0527 189.573 20.127 190.784C21.2598 192.034 22.8027 192.659 24.7559 192.659ZM41.0742 192.688C42.4805 192.688 43.7988 191.927 45.0293 190.403V183.196C45.0293 182.903 45.127 182.649 45.3223 182.434C45.5371 182.219 45.8008 182.112 46.1133 182.112C46.4062 182.112 46.6602 182.219 46.875 182.434C47.0898 182.63 47.1973 182.884 47.1973 183.196V193.479C47.1973 193.792 47.0898 194.055 46.875 194.27C46.6797 194.485 46.4258 194.593 46.1133 194.593C45.8203 194.593 45.5664 194.485 45.3516 194.27C45.1367 194.055 45.0293 193.792 45.0293 193.479V192.512C44.3848 193.177 43.8281 193.645 43.3594 193.919C42.4609 194.446 41.5918 194.71 40.752 194.71C39.9316 194.71 39.248 194.583 38.7012 194.329C38.1738 194.075 37.7344 193.743 37.3828 193.333C36.6406 192.454 36.2695 191.35 36.2695 190.022V183.196C36.2695 182.903 36.3672 182.649 36.5625 182.434C36.7773 182.219 37.041 182.112 37.3535 182.112C37.6465 182.112 37.9004 182.219 38.1152 182.434C38.3301 182.63 38.4375 182.884 38.4375 183.196V189.759C38.4375 190.657 38.6426 191.37 39.0527 191.897C39.4629 192.425 40.1367 192.688 41.0742 192.688ZM51.0645 183.225C51.0645 182.893 51.1719 182.63 51.3867 182.434C51.6016 182.219 51.8652 182.112 52.1777 182.112C52.4902 182.112 52.7441 182.219 52.9395 182.434C53.1348 182.63 53.2324 182.893 53.2324 183.225V193.509C53.2324 193.802 53.1348 194.055 52.9395 194.27C52.7441 194.485 52.4902 194.593 52.1777 194.593C51.8652 194.593 51.6016 194.485 51.3867 194.27C51.1719 194.055 51.0645 193.802 51.0645 193.509V183.225ZM53.4668 178.509C53.4668 178.86 53.3496 179.153 53.1152 179.387C52.8809 179.622 52.5879 179.739 52.2363 179.739H52.0898C51.7383 179.739 51.4453 179.622 51.2109 179.387C50.9961 179.153 50.8887 178.86 50.8887 178.509V178.421C50.8887 178.069 51.0059 177.776 51.2402 177.542C51.4746 177.307 51.7578 177.19 52.0898 177.19H52.2363C52.5879 177.19 52.8809 177.307 53.1152 177.542C53.3496 177.776 53.4668 178.069 53.4668 178.421V178.509ZM66.1816 193.479C66.1816 193.753 66.084 193.987 65.8887 194.182C65.6934 194.378 65.4492 194.475 65.1562 194.475H57.6562C57.2266 194.475 56.8652 194.368 56.5723 194.153C56.2988 193.938 56.1621 193.635 56.1621 193.245C56.1621 192.854 56.2891 192.512 56.543 192.219L63.457 184.28H57.3926C57.1191 184.28 56.875 184.182 56.6602 183.987C56.4648 183.792 56.3672 183.557 56.3672 183.284C56.3672 183.01 56.4648 182.766 56.6602 182.552C56.8555 182.337 57.0996 182.229 57.3926 182.229H64.6582C65.0879 182.229 65.4297 182.356 65.6836 182.61C65.9375 182.864 66.0645 183.186 66.0645 183.577C66.0645 183.968 65.9473 184.3 65.7129 184.573L59.0039 192.425H65.1562C65.4297 192.425 65.6641 192.532 65.8594 192.747C66.0742 192.962 66.1816 193.206 66.1816 193.479ZM78.1348 193.479C78.1348 193.753 78.0371 193.987 77.8418 194.182C77.6465 194.378 77.4023 194.475 77.1094 194.475H69.6094C69.1797 194.475 68.8184 194.368 68.5254 194.153C68.252 193.938 68.1152 193.635 68.1152 193.245C68.1152 192.854 68.2422 192.512 68.4961 192.219L75.4102 184.28H69.3457C69.0723 184.28 68.8281 184.182 68.6133 183.987C68.418 183.792 68.3203 183.557 68.3203 183.284C68.3203 183.01 68.418 182.766 68.6133 182.552C68.8086 182.337 69.0527 182.229 69.3457 182.229H76.6113C77.041 182.229 77.3828 182.356 77.6367 182.61C77.8906 182.864 78.0176 183.186 78.0176 183.577C78.0176 183.968 77.9004 184.3 77.666 184.573L70.957 192.425H77.1094C77.3828 192.425 77.6172 192.532 77.8125 192.747C78.0273 192.962 78.1348 193.206 78.1348 193.479ZM82.5 189.143C82.6367 190.218 83.0469 191.077 83.7305 191.721C84.4336 192.346 85.3906 192.659 86.6016 192.659C87.832 192.659 88.877 192.464 89.7363 192.073C90.0098 191.936 90.2539 191.868 90.4688 191.868C90.6836 191.848 90.8789 191.927 91.0547 192.102C91.25 192.278 91.3477 192.473 91.3477 192.688C91.3477 193.118 91.1719 193.421 90.8203 193.596C90.4883 193.772 90.1855 193.928 89.9121 194.065C89.6387 194.202 89.3457 194.319 89.0332 194.417C88.3105 194.612 87.4707 194.71 86.5137 194.71C84.541 194.71 83.0078 194.163 81.9141 193.069C80.8398 191.956 80.3027 190.384 80.3027 188.352C80.3027 186.594 80.7617 185.13 81.6797 183.958C82.7148 182.649 84.1699 181.995 86.0449 181.995C87.8418 181.995 89.2578 182.6 90.293 183.811C91.2695 184.944 91.7578 186.36 91.7578 188.059C91.7578 188.352 91.6504 188.606 91.4355 188.821C91.2402 189.036 90.9863 189.143 90.6738 189.143H82.5ZM86.0449 183.841C84.6191 183.841 83.584 184.475 82.9395 185.745C82.7051 186.194 82.5586 186.731 82.5 187.356H89.5898C89.5312 186.223 89.1113 185.325 88.3301 184.661C87.7051 184.114 86.9434 183.841 86.0449 183.841ZM98.584 192.688C100.361 192.688 101.24 192.132 101.221 191.018C101.221 190.667 101.045 190.393 100.693 190.198C100.342 190.003 99.9023 189.837 99.375 189.7C98.8477 189.563 98.2715 189.417 97.6465 189.26C97.0215 189.104 96.4355 188.889 95.8887 188.616C95.3418 188.343 94.8926 187.991 94.541 187.561C94.1895 187.112 94.0137 186.565 94.0137 185.921C94.0137 185.276 94.1113 184.729 94.3066 184.28C94.502 183.811 94.7949 183.411 95.1855 183.079C96.0254 182.356 97.1973 181.995 98.7012 181.995C99.9121 181.995 101.074 182.19 102.188 182.581C102.402 182.659 102.568 182.796 102.686 182.991C102.822 183.167 102.891 183.362 102.891 183.577C102.891 183.772 102.793 183.968 102.598 184.163C102.422 184.358 102.246 184.456 102.07 184.456C101.895 184.456 101.68 184.417 101.426 184.339C100.664 184.104 99.8242 183.987 98.9062 183.987C97.9883 183.987 97.2949 184.143 96.8262 184.456C96.3574 184.768 96.123 185.159 96.123 185.628C96.123 186.077 96.2988 186.409 96.6504 186.624C97.002 186.819 97.4414 186.995 97.9688 187.151C98.5156 187.307 99.1016 187.454 99.7266 187.591C100.371 187.727 100.957 187.932 101.484 188.206C102.734 188.85 103.359 189.837 103.359 191.165C103.359 192.2 102.969 193.03 102.188 193.655C101.367 194.358 100.205 194.71 98.7012 194.71C97.0996 194.71 95.6543 194.348 94.3652 193.626C94.0918 193.43 93.9453 193.196 93.9258 192.923C93.9258 192.63 94.0137 192.385 94.1895 192.19C94.3848 191.975 94.5801 191.868 94.7754 191.868C94.9707 191.868 95.2246 191.936 95.5371 192.073C96.4551 192.483 97.4707 192.688 98.584 192.688Z" fill="white"/>
<path d="M93.1638 67.0819C93.1638 46.6021 76.5616 30 56.0819 30C35.6021 30 19 46.6021 19 67.0819C19 87.5616 35.6021 104.164 56.0819 104.164C63.9324 104.164 71.2131 101.724 77.2073 97.5618" stroke="white" stroke-width="9"/>
<path d="M42.8223 63.9356C42.8223 63.9356 40.3502 47.3049 55.8572 47.3049C71.3642 47.305 68.892 56.2944 68.892 63.9356C68.892 72.3633 55.8572 72.3633 55.8572 72.3633V80.7909M55.8572 85.2857V90.9042" stroke="white" stroke-width="7"/>
<path d="M108.793 133.485L107.486 131.279H104.922H85.5V75.5H149.5V131.279H129.091H126.422L125.142 133.622L117.34 147.905L108.793 133.485Z" stroke="white" stroke-width="9"/>
<path d="M100.131 107.76L110.469 115.625L133.617 92.4773" stroke="white" stroke-width="9"/>
<ellipse cx="57.5783" cy="20.0112" rx="5.22012" ry="8.51704" transform="rotate(-16.3825 57.5783 20.0112)" fill="white"/>
<ellipse cx="68.1534" cy="24.1954" rx="5.22012" ry="8.51704" transform="rotate(53.5908 68.1534 24.1954)" fill="white"/>
<defs>
<filter id="filter0_d" x="0" y="0" width="170" height="228" filterUnits="userSpaceOnUse" color-interpolation-filters="sRGB">
<feFlood flood-opacity="0" result="BackgroundImageFix"/>
<feColorMatrix in="SourceAlpha" type="matrix" values="0 0 0 0 0 0 0 0 0 0 0 0 0 0 0 0 0 0 127 0"/>
<feOffset dy="4"/>
<feGaussianBlur stdDeviation="2"/>
<feColorMatrix type="matrix" values="0 0 0 0 0 0 0 0 0 0 0 0 0 0 0 0 0 0 0.25 0"/>
<feBlend mode="normal" in2="BackgroundImageFix" result="effect1_dropShadow"/>
<feBlend mode="normal" in="SourceGraphic" in2="effect1_dropShadow" result="shape"/>
</filter>
</defs>
</svg>
