<svg width="170" height="177" viewBox="0 0 170 177" fill="none" xmlns="http://www.w3.org/2000/svg">
<g filter="url(#filter0_d)">
<rect x="4" width="162" height="169" rx="20" fill="#F9B43C"/>
</g>
<path d="M32.2773 117.879C32.7266 117.879 33.0977 118.036 33.3906 118.348C33.7031 118.661 33.8594 119.032 33.8594 119.461V133.788C33.8594 134.081 33.752 134.334 33.5371 134.549C33.3223 134.764 33.0684 134.872 32.7754 134.872C32.4824 134.872 32.2285 134.764 32.0137 134.549C31.7988 134.334 31.6914 134.081 31.6914 133.788V120.165L26.125 133.875C26.0078 134.168 25.8125 134.413 25.5391 134.608C25.2656 134.784 24.9531 134.872 24.6016 134.872C24.25 134.872 23.9375 134.784 23.6641 134.608C23.3906 134.432 23.1855 134.188 23.0488 133.875L17.5117 120.165V133.788C17.5117 134.081 17.4043 134.334 17.1895 134.549C16.9746 134.764 16.7109 134.872 16.3984 134.872C16.1055 134.872 15.8516 134.764 15.6367 134.549C15.4219 134.334 15.3145 134.081 15.3145 133.788V119.461C15.3145 119.032 15.4609 118.661 15.7539 118.348C16.0664 118.036 16.4473 117.879 16.8965 117.879H17.6875C18 117.879 18.2832 117.977 18.5371 118.172C18.8105 118.368 19.0156 118.602 19.1523 118.875L24.6016 132.469L30.0508 118.875C30.168 118.602 30.3535 118.368 30.6074 118.172C30.8809 117.977 31.1836 117.879 31.5156 117.879H32.2773ZM38.5176 123.124C39.8652 122.538 41.2617 122.254 42.707 122.274C44.3281 122.274 45.5879 122.772 46.4863 123.768C47.2871 124.627 47.6973 125.702 47.7168 126.991V133.788C47.7168 134.081 47.5996 134.334 47.3652 134.549C47.1504 134.764 46.8867 134.872 46.5742 134.872C46.2812 134.872 46.0273 134.764 45.8125 134.549C45.5977 134.334 45.4902 134.081 45.4902 133.788V133.172C45.0605 133.622 44.4844 134.042 43.7617 134.432C43.0391 134.803 42.1211 134.989 41.0078 134.989C39.8945 134.989 38.9668 134.667 38.2246 134.022C37.4629 133.358 37.082 132.489 37.082 131.415C37.082 130.223 37.5312 129.286 38.4297 128.602C39.4062 127.86 40.793 127.499 42.5898 127.518H45.4902V127.313C45.4902 126.239 45.2266 125.477 44.6992 125.028C44.1914 124.579 43.3906 124.354 42.2969 124.354C41.3789 124.354 40.3145 124.54 39.1035 124.911C38.9863 124.95 38.8398 124.969 38.6641 124.969C38.5078 124.969 38.3418 124.891 38.166 124.735C37.9902 124.559 37.8926 124.295 37.873 123.944C37.873 123.573 38.0879 123.299 38.5176 123.124ZM39.2793 131.151C39.2793 132.44 40.1289 133.075 41.8281 133.055C42.5703 133.055 43.2637 132.879 43.9082 132.528C44.5723 132.157 45.0996 131.747 45.4902 131.297V129.276H42.9121C41.7793 129.276 40.8906 129.422 40.2461 129.715C39.6016 129.989 39.2793 130.467 39.2793 131.151ZM57.502 124.295C56.0957 124.295 54.7773 125.067 53.5469 126.61V133.788C53.5469 134.081 53.4395 134.334 53.2246 134.549C53.0098 134.764 52.7559 134.872 52.4629 134.872C52.1699 134.872 51.916 134.764 51.7012 134.549C51.4863 134.334 51.3789 134.081 51.3789 133.788V123.504C51.3789 123.192 51.4766 122.928 51.6719 122.713C51.8867 122.499 52.1504 122.391 52.4629 122.391C52.7559 122.391 53.0098 122.499 53.2246 122.713C53.4395 122.909 53.5469 123.172 53.5469 123.504V124.5C54.1914 123.836 54.748 123.358 55.2168 123.065C56.1152 122.538 56.9746 122.274 57.7949 122.274C58.6348 122.274 59.3184 122.401 59.8457 122.655C60.373 122.889 60.8223 123.231 61.1934 123.68C61.9355 124.559 62.3066 125.653 62.3066 126.961V133.788C62.3066 134.081 62.1992 134.334 61.9844 134.549C61.7695 134.764 61.5156 134.872 61.2227 134.872C60.9297 134.872 60.6758 134.764 60.4609 134.549C60.2461 134.334 60.1387 134.081 60.1387 133.788V127.196C60.1387 126.297 59.9336 125.594 59.5234 125.086C59.1133 124.559 58.4395 124.295 57.502 124.295ZM66.4082 123.124C67.7559 122.538 69.1523 122.254 70.5977 122.274C72.2188 122.274 73.4785 122.772 74.377 123.768C75.1777 124.627 75.5879 125.702 75.6074 126.991V133.788C75.6074 134.081 75.4902 134.334 75.2559 134.549C75.041 134.764 74.7773 134.872 74.4648 134.872C74.1719 134.872 73.918 134.764 73.7031 134.549C73.4883 134.334 73.3809 134.081 73.3809 133.788V133.172C72.9512 133.622 72.375 134.042 71.6523 134.432C70.9297 134.803 70.0117 134.989 68.8984 134.989C67.7852 134.989 66.8574 134.667 66.1152 134.022C65.3535 133.358 64.9727 132.489 64.9727 131.415C64.9727 130.223 65.4219 129.286 66.3203 128.602C67.2969 127.86 68.6836 127.499 70.4805 127.518H73.3809V127.313C73.3809 126.239 73.1172 125.477 72.5898 125.028C72.082 124.579 71.2812 124.354 70.1875 124.354C69.2695 124.354 68.2051 124.54 66.9941 124.911C66.877 124.95 66.7305 124.969 66.5547 124.969C66.3984 124.969 66.2324 124.891 66.0566 124.735C65.8809 124.559 65.7832 124.295 65.7637 123.944C65.7637 123.573 65.9785 123.299 66.4082 123.124ZM67.1699 131.151C67.1699 132.44 68.0195 133.075 69.7188 133.055C70.4609 133.055 71.1543 132.879 71.7988 132.528C72.4629 132.157 72.9902 131.747 73.3809 131.297V129.276H70.8027C69.6699 129.276 68.7812 129.422 68.1367 129.715C67.4922 129.989 67.1699 130.467 67.1699 131.151ZM88.4395 124.09V123.504C88.4395 123.211 88.5371 122.958 88.7324 122.743C88.9473 122.508 89.2012 122.391 89.4941 122.391C89.7871 122.391 90.041 122.499 90.2559 122.713C90.4902 122.928 90.6074 123.192 90.6074 123.504V134.227C90.6074 136.258 90.1191 137.811 89.1426 138.885C88.166 139.979 86.7793 140.526 84.9824 140.526C83.0684 140.526 81.3496 140.106 79.8262 139.266C79.5527 139.09 79.416 138.846 79.416 138.534C79.416 138.221 79.5039 137.958 79.6797 137.743C79.875 137.547 80.0703 137.45 80.2656 137.45C80.4609 137.45 80.6367 137.479 80.793 137.538C82.0039 138.143 83.3223 138.446 84.748 138.446C87.209 138.446 88.4395 137.147 88.4395 134.549V132.938C87.3066 134.149 85.9395 134.754 84.3379 134.754C82.8145 134.754 81.5059 134.237 80.4121 133.202C79.1426 132.03 78.5078 130.467 78.5078 128.514C78.5078 126.542 79.1426 124.969 80.4121 123.797C81.5059 122.762 82.834 122.254 84.3965 122.274C85.959 122.274 87.3066 122.879 88.4395 124.09ZM88.4395 126.024C87.9902 125.555 87.4727 125.145 86.8867 124.793C86.3203 124.442 85.6855 124.266 84.9824 124.266C84.2793 124.266 83.6738 124.354 83.166 124.53C82.6777 124.706 82.248 124.969 81.877 125.321C81.0957 126.063 80.7051 127.127 80.7051 128.514C80.7051 130.584 81.5254 131.913 83.166 132.499C83.6738 132.674 84.2793 132.762 84.9824 132.762C86.1543 132.762 87.3066 132.167 88.4395 130.975V126.024ZM95.8516 129.422C95.9883 130.497 96.3984 131.356 97.082 132C97.7852 132.625 98.7422 132.938 99.9531 132.938C101.184 132.938 102.229 132.743 103.088 132.352C103.361 132.215 103.605 132.147 103.82 132.147C104.035 132.127 104.23 132.206 104.406 132.381C104.602 132.557 104.699 132.752 104.699 132.967C104.699 133.397 104.523 133.7 104.172 133.875C103.84 134.051 103.537 134.208 103.264 134.344C102.99 134.481 102.697 134.598 102.385 134.696C101.662 134.891 100.822 134.989 99.8652 134.989C97.8926 134.989 96.3594 134.442 95.2656 133.348C94.1914 132.235 93.6543 130.663 93.6543 128.631C93.6543 126.874 94.1133 125.409 95.0312 124.237C96.0664 122.928 97.5215 122.274 99.3965 122.274C101.193 122.274 102.609 122.879 103.645 124.09C104.621 125.223 105.109 126.639 105.109 128.338C105.109 128.631 105.002 128.885 104.787 129.1C104.592 129.315 104.338 129.422 104.025 129.422H95.8516ZM99.3965 124.12C97.9707 124.12 96.9355 124.754 96.291 126.024C96.0566 126.473 95.9102 127.01 95.8516 127.635H102.941C102.883 126.502 102.463 125.604 101.682 124.94C101.057 124.393 100.295 124.12 99.3965 124.12ZM20.3828 156.938C23.1758 156.938 24.582 156.01 24.6016 154.155C24.6016 153.393 24.0645 152.788 22.9902 152.338C22.5215 152.143 21.9746 151.967 21.3496 151.811C20.7441 151.655 20.1289 151.489 19.5039 151.313C18.8789 151.137 18.2539 150.942 17.6289 150.727C17.0039 150.493 16.457 150.2 15.9883 149.848C14.9336 149.047 14.3965 147.993 14.377 146.684C14.377 145.278 14.9141 144.125 15.9883 143.227C17.1406 142.25 18.6836 141.762 20.6172 141.762C22.375 141.762 23.957 142.026 25.3633 142.553C25.8125 142.709 26.0469 143.032 26.0664 143.52C26.0664 143.754 25.9785 143.979 25.8027 144.194C25.6465 144.409 25.4609 144.516 25.2461 144.516C25.0508 144.516 24.7773 144.458 24.4258 144.34C23.3711 143.969 22.1797 143.784 20.8516 143.784C19.6211 143.784 18.6055 144.018 17.8047 144.487C16.9844 144.975 16.5742 145.649 16.5742 146.508C16.5742 147.407 17.1016 148.1 18.1562 148.588C18.6445 148.803 19.1914 148.989 19.7969 149.145C20.4023 149.282 21.0273 149.428 21.6719 149.584C22.3164 149.741 22.9316 149.936 23.5176 150.17C24.123 150.385 24.6699 150.659 25.1582 150.991C26.2129 151.752 26.75 152.866 26.7695 154.331C26.7695 155.698 26.2129 156.811 25.0996 157.67C23.9668 158.549 22.4727 158.989 20.6172 158.989C18.5859 158.989 16.6816 158.608 14.9043 157.846C14.7285 157.768 14.5723 157.641 14.4355 157.465C14.2988 157.27 14.2305 157.055 14.2305 156.821C14.2305 156.586 14.3184 156.372 14.4941 156.176C14.6699 155.961 14.8652 155.854 15.0801 155.854C15.3145 155.854 15.5977 155.932 15.9297 156.088C16.2812 156.245 16.8477 156.43 17.6289 156.645C18.4102 156.84 19.3281 156.938 20.3828 156.938ZM35.4707 156.938C36.3691 156.938 37.2188 156.723 38.0195 156.293C38.293 156.137 38.5469 156.059 38.7812 156.059C39.0156 156.04 39.2207 156.137 39.3965 156.352C39.5723 156.567 39.6602 156.821 39.6602 157.114C39.6602 157.387 39.4746 157.641 39.1035 157.875C37.9707 158.618 36.7012 158.989 35.2949 158.989C33.5176 158.989 32.0137 158.432 30.7832 157.319C29.4941 156.127 28.8594 154.565 28.8789 152.631C28.8789 150.698 29.5137 149.135 30.7832 147.944C31.9941 146.811 33.498 146.254 35.2949 146.274C36.252 146.274 37.0332 146.401 37.6387 146.655C38.2637 146.889 38.752 147.133 39.1035 147.387C39.4746 147.622 39.6602 147.885 39.6602 148.178C39.6602 148.471 39.5723 148.715 39.3965 148.911C39.2207 149.106 39.0449 149.204 38.8691 149.204C38.5957 149.204 38.3125 149.125 38.0195 148.969C37.1992 148.52 36.3496 148.305 35.4707 148.325C34.0645 148.325 32.9707 148.725 32.1895 149.526C31.4277 150.307 31.0469 151.342 31.0469 152.631C31.0469 153.92 31.4277 154.965 32.1895 155.766C32.9707 156.547 34.0645 156.938 35.4707 156.938ZM48.625 148.295C47.2188 148.295 45.9004 149.067 44.6699 150.61V157.788C44.6699 158.081 44.5625 158.334 44.3477 158.549C44.1328 158.764 43.8789 158.872 43.5859 158.872C43.293 158.872 43.0391 158.764 42.8242 158.549C42.6094 158.334 42.502 158.081 42.502 157.788V142.202C42.502 141.889 42.5996 141.635 42.7949 141.44C43.0098 141.225 43.2734 141.118 43.5859 141.118C43.8789 141.118 44.1328 141.225 44.3477 141.44C44.5625 141.635 44.6699 141.889 44.6699 142.202V148.5C45.3145 147.836 45.8711 147.358 46.3398 147.065C47.2383 146.538 48.0977 146.274 48.918 146.274C49.7578 146.274 50.4414 146.401 50.9688 146.655C51.4961 146.889 51.9453 147.231 52.3164 147.68C53.0586 148.559 53.4297 149.653 53.4297 150.961V157.788C53.4297 158.081 53.3223 158.334 53.1074 158.549C52.8926 158.764 52.6387 158.872 52.3457 158.872C52.0527 158.872 51.7988 158.764 51.584 158.549C51.3691 158.334 51.2617 158.081 51.2617 157.788V151.196C51.2617 150.297 51.0566 149.594 50.6465 149.086C50.2363 148.559 49.5625 148.295 48.625 148.295ZM58.5566 153.422C58.6934 154.497 59.1035 155.356 59.7871 156C60.4902 156.625 61.4473 156.938 62.6582 156.938C63.8887 156.938 64.9336 156.743 65.793 156.352C66.0664 156.215 66.3105 156.147 66.5254 156.147C66.7402 156.127 66.9355 156.206 67.1113 156.381C67.3066 156.557 67.4043 156.752 67.4043 156.967C67.4043 157.397 67.2285 157.7 66.877 157.875C66.5449 158.051 66.2422 158.208 65.9688 158.344C65.6953 158.481 65.4023 158.598 65.0898 158.696C64.3672 158.891 63.5273 158.989 62.5703 158.989C60.5977 158.989 59.0645 158.442 57.9707 157.348C56.8965 156.235 56.3594 154.663 56.3594 152.631C56.3594 150.874 56.8184 149.409 57.7363 148.237C58.7715 146.928 60.2266 146.274 62.1016 146.274C63.8984 146.274 65.3145 146.879 66.3496 148.09C67.3262 149.223 67.8145 150.639 67.8145 152.338C67.8145 152.631 67.707 152.885 67.4922 153.1C67.2969 153.315 67.043 153.422 66.7305 153.422H58.5566ZM62.1016 148.12C60.6758 148.12 59.6406 148.754 58.9961 150.024C58.7617 150.473 58.6152 151.01 58.5566 151.635H65.6465C65.5879 150.502 65.168 149.604 64.3867 148.94C63.7617 148.393 63 148.12 62.1016 148.12ZM79.9141 157.172C78.7227 158.383 77.3555 158.989 75.8125 158.989C74.2891 158.989 72.9609 158.452 71.8281 157.377C70.6172 156.167 70.002 154.584 69.9824 152.631C69.9824 150.717 70.5977 149.145 71.8281 147.915C72.9414 146.801 74.2695 146.254 75.8125 146.274C77.3555 146.274 78.7227 146.879 79.9141 148.09V142.202C79.9141 141.889 80.0117 141.635 80.207 141.44C80.4219 141.225 80.6855 141.118 80.998 141.118C81.3105 141.118 81.5645 141.225 81.7598 141.44C81.9746 141.635 82.082 141.889 82.082 142.202V157.788C82.082 158.081 81.9746 158.334 81.7598 158.549C81.5645 158.764 81.3105 158.872 80.998 158.872C80.6855 158.872 80.4219 158.764 80.207 158.549C80.0117 158.334 79.9141 158.081 79.9141 157.788V157.172ZM79.9141 150.112C78.8203 148.901 77.5508 148.305 76.1055 148.325C74.2695 148.325 73.0684 149.135 72.502 150.756C72.3066 151.303 72.1992 151.928 72.1797 152.631C72.1797 153.999 72.5508 155.083 73.293 155.883C73.9766 156.606 74.9141 156.958 76.1055 156.938C77.5508 156.938 78.8203 156.342 79.9141 155.151V150.112ZM90.5781 156.967C91.9844 156.967 93.3027 156.206 94.5332 154.682V147.475C94.5332 147.182 94.6309 146.928 94.8262 146.713C95.041 146.499 95.3047 146.391 95.6172 146.391C95.9102 146.391 96.1641 146.499 96.3789 146.713C96.5938 146.909 96.7012 147.163 96.7012 147.475V157.758C96.7012 158.071 96.5938 158.334 96.3789 158.549C96.1836 158.764 95.9297 158.872 95.6172 158.872C95.3242 158.872 95.0703 158.764 94.8555 158.549C94.6406 158.334 94.5332 158.071 94.5332 157.758V156.792C93.8887 157.456 93.332 157.924 92.8633 158.198C91.9648 158.725 91.0957 158.989 90.2559 158.989C89.4355 158.989 88.752 158.862 88.2051 158.608C87.6777 158.354 87.2383 158.022 86.8867 157.612C86.1445 156.733 85.7734 155.629 85.7734 154.301V147.475C85.7734 147.182 85.8711 146.928 86.0664 146.713C86.2812 146.499 86.5449 146.391 86.8574 146.391C87.1504 146.391 87.4043 146.499 87.6191 146.713C87.834 146.909 87.9414 147.163 87.9414 147.475V154.038C87.9414 154.936 88.1465 155.649 88.5566 156.176C88.9668 156.704 89.6406 156.967 90.5781 156.967ZM100.656 142.202C100.656 141.889 100.764 141.635 100.979 141.44C101.193 141.225 101.457 141.118 101.77 141.118C102.082 141.118 102.336 141.225 102.531 141.44C102.746 141.635 102.854 141.889 102.854 142.202V157.788C102.854 158.081 102.746 158.334 102.531 158.549C102.336 158.764 102.082 158.872 101.77 158.872C101.457 158.872 101.193 158.764 100.979 158.549C100.764 158.334 100.656 158.081 100.656 157.788V142.202ZM108.273 153.422C108.41 154.497 108.82 155.356 109.504 156C110.207 156.625 111.164 156.938 112.375 156.938C113.605 156.938 114.65 156.743 115.51 156.352C115.783 156.215 116.027 156.147 116.242 156.147C116.457 156.127 116.652 156.206 116.828 156.381C117.023 156.557 117.121 156.752 117.121 156.967C117.121 157.397 116.945 157.7 116.594 157.875C116.262 158.051 115.959 158.208 115.686 158.344C115.412 158.481 115.119 158.598 114.807 158.696C114.084 158.891 113.244 158.989 112.287 158.989C110.314 158.989 108.781 158.442 107.688 157.348C106.613 156.235 106.076 154.663 106.076 152.631C106.076 150.874 106.535 149.409 107.453 148.237C108.488 146.928 109.943 146.274 111.818 146.274C113.615 146.274 115.031 146.879 116.066 148.09C117.043 149.223 117.531 150.639 117.531 152.338C117.531 152.631 117.424 152.885 117.209 153.1C117.014 153.315 116.76 153.422 116.447 153.422H108.273ZM111.818 148.12C110.393 148.12 109.357 148.754 108.713 150.024C108.479 150.473 108.332 151.01 108.273 151.635H115.363C115.305 150.502 114.885 149.604 114.104 148.94C113.479 148.393 112.717 148.12 111.818 148.12Z" fill="white"/>
<rect x="31.5" y="29.5" width="98" height="76" rx="10.5" stroke="white" stroke-width="5"/>
<rect x="56.1472" y="15.5" width="9.03096" height="27.1239" rx="4.51548" fill="white" stroke="#F9B43C" stroke-width="3"/>
<rect x="95.7231" y="15.5" width="9.03096" height="27.1239" rx="4.51548" fill="white" stroke="#F9B43C" stroke-width="3"/>
<line x1="31" y1="48.5" x2="130.131" y2="48.5" stroke="white" stroke-width="5"/>
<rect x="39" y="57" width="15.4543" height="15.4543" rx="7.72717" fill="white"/>
<rect x="38.9999" y="78.4856" width="15.4543" height="15.4543" rx="7.72717" fill="white"/>
<rect x="79.9087" y="57" width="15.4543" height="15.4543" rx="7.72717" fill="white"/>
<rect x="100.363" y="57" width="15.4543" height="15.4543" rx="7.72717" fill="white"/>
<rect x="79.9087" y="78.4849" width="15.4543" height="15.4543" rx="7.72717" fill="white"/>
<rect x="59.4543" y="57" width="15.4543" height="15.4543" rx="7.72717" fill="white"/>
<rect x="59.4543" y="78.4854" width="15.4543" height="15.4543" rx="7.72717" fill="white"/>
<circle cx="124.515" cy="84.5154" r="25.0154" fill="white" stroke="#F9B43C" stroke-width="5"/>
<rect x="122.255" y="65.2927" width="4.52322" height="21.4853" rx="2.26161" fill="#F9B43C"/>
<path d="M125.038 86.7778C123.789 86.7778 122.777 85.7653 122.777 84.5162C122.777 83.2672 123.789 82.2546 125.038 82.2546H138.086C139.335 82.2546 140.348 83.2672 140.348 84.5162C140.348 85.7653 139.335 86.7778 138.086 86.7778H125.038Z" fill="#F9B43C"/>
<defs>
<filter id="filter0_d" x="0" y="0" width="170" height="177" filterUnits="userSpaceOnUse" color-interpolation-filters="sRGB">
<feFlood flood-opacity="0" result="BackgroundImageFix"/>
<feColorMatrix in="SourceAlpha" type="matrix" values="0 0 0 0 0 0 0 0 0 0 0 0 0 0 0 0 0 0 127 0"/>
<feOffset dy="4"/>
<feGaussianBlur stdDeviation="2"/>
<feColorMatrix type="matrix" values="0 0 0 0 0 0 0 0 0 0 0 0 0 0 0 0 0 0 0.25 0"/>
<feBlend mode="normal" in2="BackgroundImageFix" result="effect1_dropShadow"/>
<feBlend mode="normal" in="SourceGraphic" in2="effect1_dropShadow" result="shape"/>
</filter>
</defs>
</svg>
