<svg width="170" height="174" viewBox="0 0 170 174" fill="none" xmlns="http://www.w3.org/2000/svg">
<g filter="url(#filter0_d)">
<rect x="4" y="1" width="162" height="165" rx="20" fill="#E41849"/>
</g>
<path d="M27.3555 122.645C27.4727 122.586 27.6484 122.557 27.8828 122.557C28.1172 122.557 28.3223 122.654 28.498 122.85C28.6738 123.025 28.7617 123.23 28.7617 123.465C28.7617 123.895 28.5762 124.207 28.2051 124.402C27.4629 124.832 26.6621 125.184 25.8027 125.457C24.9629 125.73 23.9375 125.867 22.7266 125.867C21.5352 125.867 20.4219 125.672 19.3867 125.281C18.3711 124.891 17.4922 124.324 16.75 123.582C15.1484 122.02 14.3477 119.91 14.3477 117.254C14.3477 114.617 15.1484 112.508 16.75 110.926C18.293 109.402 20.2949 108.641 22.7559 108.641C23.9473 108.641 24.9629 108.787 25.8027 109.08C26.6621 109.373 27.3164 109.646 27.7656 109.9C28.2148 110.135 28.4883 110.33 28.5859 110.486C28.7031 110.623 28.7617 110.809 28.7617 111.043C28.7617 111.277 28.6738 111.492 28.498 111.688C28.3223 111.863 28.1172 111.951 27.8828 111.951C27.668 111.951 27.4922 111.922 27.3555 111.863C26.7109 111.512 26.0469 111.238 25.3633 111.043C24.6992 110.828 23.8691 110.721 22.873 110.721C21.877 110.721 20.9688 110.896 20.1484 111.248C19.3477 111.58 18.6738 112.039 18.127 112.625C17.0527 113.797 16.5254 115.34 16.5449 117.254C16.5449 119.168 17.0723 120.711 18.127 121.883C19.2988 123.152 20.9102 123.787 22.9609 123.787C23.8984 123.787 24.6992 123.689 25.3633 123.494C26.0469 123.279 26.7109 122.996 27.3555 122.645ZM37.7559 115.174C36.3496 115.174 35.0312 115.945 33.8008 117.488V124.666C33.8008 124.959 33.6934 125.213 33.4785 125.428C33.2637 125.643 33.0098 125.75 32.7168 125.75C32.4238 125.75 32.1699 125.643 31.9551 125.428C31.7402 125.213 31.6328 124.959 31.6328 124.666V109.08C31.6328 108.768 31.7305 108.514 31.9258 108.318C32.1406 108.104 32.4043 107.996 32.7168 107.996C33.0098 107.996 33.2637 108.104 33.4785 108.318C33.6934 108.514 33.8008 108.768 33.8008 109.08V115.379C34.4453 114.715 35.002 114.236 35.4707 113.943C36.3691 113.416 37.2285 113.152 38.0488 113.152C38.8887 113.152 39.5723 113.279 40.0996 113.533C40.627 113.768 41.0762 114.109 41.4473 114.559C42.1895 115.438 42.5605 116.531 42.5605 117.84V124.666C42.5605 124.959 42.4531 125.213 42.2383 125.428C42.0234 125.643 41.7695 125.75 41.4766 125.75C41.1836 125.75 40.9297 125.643 40.7148 125.428C40.5 125.213 40.3926 124.959 40.3926 124.666V118.074C40.3926 117.176 40.1875 116.473 39.7773 115.965C39.3672 115.438 38.6934 115.174 37.7559 115.174ZM47.6875 120.301C47.8242 121.375 48.2344 122.234 48.918 122.879C49.6211 123.504 50.5781 123.816 51.7891 123.816C53.0195 123.816 54.0645 123.621 54.9238 123.23C55.1973 123.094 55.4414 123.025 55.6562 123.025C55.8711 123.006 56.0664 123.084 56.2422 123.26C56.4375 123.436 56.5352 123.631 56.5352 123.846C56.5352 124.275 56.3594 124.578 56.0078 124.754C55.6758 124.93 55.373 125.086 55.0996 125.223C54.8262 125.359 54.5332 125.477 54.2207 125.574C53.498 125.77 52.6582 125.867 51.7012 125.867C49.7285 125.867 48.1953 125.32 47.1016 124.227C46.0273 123.113 45.4902 121.541 45.4902 119.51C45.4902 117.752 45.9492 116.287 46.8672 115.115C47.9023 113.807 49.3574 113.152 51.2324 113.152C53.0293 113.152 54.4453 113.758 55.4805 114.969C56.457 116.102 56.9453 117.518 56.9453 119.217C56.9453 119.51 56.8379 119.764 56.623 119.979C56.4277 120.193 56.1738 120.301 55.8613 120.301H47.6875ZM51.2324 114.998C49.8066 114.998 48.7715 115.633 48.127 116.902C47.8926 117.352 47.7461 117.889 47.6875 118.514H54.7773C54.7188 117.381 54.2988 116.482 53.5176 115.818C52.8926 115.271 52.1309 114.998 51.2324 114.998ZM65.6758 123.816C66.5742 123.816 67.4238 123.602 68.2246 123.172C68.498 123.016 68.752 122.938 68.9863 122.938C69.2207 122.918 69.4258 123.016 69.6016 123.23C69.7773 123.445 69.8652 123.699 69.8652 123.992C69.8652 124.266 69.6797 124.52 69.3086 124.754C68.1758 125.496 66.9062 125.867 65.5 125.867C63.7227 125.867 62.2188 125.311 60.9883 124.197C59.6992 123.006 59.0645 121.443 59.084 119.51C59.084 117.576 59.7188 116.014 60.9883 114.822C62.1992 113.689 63.7031 113.133 65.5 113.152C66.457 113.152 67.2383 113.279 67.8438 113.533C68.4688 113.768 68.957 114.012 69.3086 114.266C69.6797 114.5 69.8652 114.764 69.8652 115.057C69.8652 115.35 69.7773 115.594 69.6016 115.789C69.4258 115.984 69.25 116.082 69.0742 116.082C68.8008 116.082 68.5176 116.004 68.2246 115.848C67.4043 115.398 66.5547 115.184 65.6758 115.203C64.2695 115.203 63.1758 115.604 62.3945 116.404C61.6328 117.186 61.252 118.221 61.252 119.51C61.252 120.799 61.6328 121.844 62.3945 122.645C63.1758 123.426 64.2695 123.816 65.6758 123.816ZM82.8438 124.051C83 124.246 83.0781 124.49 83.0781 124.783C83.0781 125.057 82.9707 125.291 82.7559 125.486C82.5605 125.662 82.3359 125.75 82.082 125.75C81.6914 125.75 81.3594 125.604 81.0859 125.311L76.9551 119.686L74.875 121.59V124.666C74.875 124.959 74.7676 125.213 74.5527 125.428C74.3379 125.643 74.084 125.75 73.791 125.75C73.498 125.75 73.2441 125.643 73.0293 125.428C72.8145 125.213 72.707 124.959 72.707 124.666V109.08C72.707 108.787 72.8047 108.533 73 108.318C73.2148 108.104 73.4785 107.996 73.791 107.996C74.084 107.996 74.3379 108.104 74.5527 108.318C74.7676 108.533 74.875 108.787 74.875 109.08V118.895L80.5879 113.621C80.8418 113.426 81.125 113.328 81.4375 113.328C81.7695 113.328 82.0039 113.445 82.1406 113.68C82.2969 113.895 82.375 114.09 82.375 114.266C82.375 114.617 82.2383 114.93 81.9648 115.203L78.5078 118.309L82.8438 124.051ZM20.3828 147.816C23.1758 147.816 24.582 146.889 24.6016 145.033C24.6016 144.271 24.0645 143.666 22.9902 143.217C22.5215 143.021 21.9746 142.846 21.3496 142.689C20.7441 142.533 20.1289 142.367 19.5039 142.191C18.8789 142.016 18.2539 141.82 17.6289 141.605C17.0039 141.371 16.457 141.078 15.9883 140.727C14.9336 139.926 14.3965 138.871 14.377 137.562C14.377 136.156 14.9141 135.004 15.9883 134.105C17.1406 133.129 18.6836 132.641 20.6172 132.641C22.375 132.641 23.957 132.904 25.3633 133.432C25.8125 133.588 26.0469 133.91 26.0664 134.398C26.0664 134.633 25.9785 134.857 25.8027 135.072C25.6465 135.287 25.4609 135.395 25.2461 135.395C25.0508 135.395 24.7773 135.336 24.4258 135.219C23.3711 134.848 22.1797 134.662 20.8516 134.662C19.6211 134.662 18.6055 134.896 17.8047 135.365C16.9844 135.854 16.5742 136.527 16.5742 137.387C16.5742 138.285 17.1016 138.979 18.1562 139.467C18.6445 139.682 19.1914 139.867 19.7969 140.023C20.4023 140.16 21.0273 140.307 21.6719 140.463C22.3164 140.619 22.9316 140.814 23.5176 141.049C24.123 141.264 24.6699 141.537 25.1582 141.869C26.2129 142.631 26.75 143.744 26.7695 145.209C26.7695 146.576 26.2129 147.689 25.0996 148.549C23.9668 149.428 22.4727 149.867 20.6172 149.867C18.5859 149.867 16.6816 149.486 14.9043 148.725C14.7285 148.646 14.5723 148.52 14.4355 148.344C14.2988 148.148 14.2305 147.934 14.2305 147.699C14.2305 147.465 14.3184 147.25 14.4941 147.055C14.6699 146.84 14.8652 146.732 15.0801 146.732C15.3145 146.732 15.5977 146.811 15.9297 146.967C16.2812 147.123 16.8477 147.309 17.6289 147.523C18.4102 147.719 19.3281 147.816 20.3828 147.816ZM35.4707 147.816C36.3691 147.816 37.2188 147.602 38.0195 147.172C38.293 147.016 38.5469 146.938 38.7812 146.938C39.0156 146.918 39.2207 147.016 39.3965 147.23C39.5723 147.445 39.6602 147.699 39.6602 147.992C39.6602 148.266 39.4746 148.52 39.1035 148.754C37.9707 149.496 36.7012 149.867 35.2949 149.867C33.5176 149.867 32.0137 149.311 30.7832 148.197C29.4941 147.006 28.8594 145.443 28.8789 143.51C28.8789 141.576 29.5137 140.014 30.7832 138.822C31.9941 137.689 33.498 137.133 35.2949 137.152C36.252 137.152 37.0332 137.279 37.6387 137.533C38.2637 137.768 38.752 138.012 39.1035 138.266C39.4746 138.5 39.6602 138.764 39.6602 139.057C39.6602 139.35 39.5723 139.594 39.3965 139.789C39.2207 139.984 39.0449 140.082 38.8691 140.082C38.5957 140.082 38.3125 140.004 38.0195 139.848C37.1992 139.398 36.3496 139.184 35.4707 139.203C34.0645 139.203 32.9707 139.604 32.1895 140.404C31.4277 141.186 31.0469 142.221 31.0469 143.51C31.0469 144.799 31.4277 145.844 32.1895 146.645C32.9707 147.426 34.0645 147.816 35.4707 147.816ZM47.8926 137.152C49.748 137.152 51.2422 137.738 52.375 138.91C53.5078 140.102 54.0547 141.635 54.0156 143.51C54.0156 145.404 53.4688 146.938 52.375 148.109C51.2422 149.281 49.748 149.867 47.8926 149.867C46.0176 149.867 44.5332 149.281 43.4395 148.109C42.3066 146.938 41.7402 145.404 41.7402 143.51C41.7402 141.596 42.3066 140.062 43.4395 138.91C44.5332 137.738 46.0176 137.152 47.8926 137.152ZM45.1973 146.908C45.5879 147.24 46.0176 147.484 46.4863 147.641C46.9746 147.797 47.4434 147.875 47.8926 147.875C48.3418 147.875 48.8008 147.797 49.2695 147.641C49.7383 147.484 50.168 147.23 50.5586 146.879C51.418 146.098 51.8477 144.965 51.8477 143.48C51.8477 142.035 51.418 140.912 50.5586 140.111C49.8359 139.447 48.9473 139.125 47.8926 139.145C46.1543 139.145 44.9531 139.926 44.2891 141.488C44.0547 142.055 43.9375 142.729 43.9375 143.51C43.9375 144.291 44.0547 144.965 44.2891 145.531C44.5234 146.098 44.8262 146.557 45.1973 146.908ZM59.2305 139.408C60.3633 137.904 61.623 137.152 63.0098 137.152H63.127C63.4199 137.152 63.6641 137.26 63.8594 137.475C64.0742 137.67 64.1816 137.924 64.1816 138.236C64.1816 138.549 64.0742 138.803 63.8594 138.998C63.6445 139.174 63.3809 139.262 63.0684 139.262H62.9512C62.1504 139.262 61.4375 139.457 60.8125 139.848C60.1875 140.238 59.6602 140.746 59.2305 141.371V148.666C59.2305 148.959 59.123 149.213 58.9082 149.428C58.6934 149.643 58.4395 149.75 58.1465 149.75C57.8535 149.75 57.5996 149.643 57.3848 149.428C57.1699 149.213 57.0625 148.959 57.0625 148.666V138.383C57.0625 138.09 57.1602 137.836 57.3555 137.621C57.5703 137.387 57.834 137.27 58.1465 137.27C58.4395 137.27 58.6934 137.377 58.9082 137.592C59.123 137.807 59.2305 138.07 59.2305 138.383V139.408ZM67.7852 144.301C67.9219 145.375 68.332 146.234 69.0156 146.879C69.7188 147.504 70.6758 147.816 71.8867 147.816C73.1172 147.816 74.1621 147.621 75.0215 147.23C75.2949 147.094 75.5391 147.025 75.7539 147.025C75.9688 147.006 76.1641 147.084 76.3398 147.26C76.5352 147.436 76.6328 147.631 76.6328 147.846C76.6328 148.275 76.457 148.578 76.1055 148.754C75.7734 148.93 75.4707 149.086 75.1973 149.223C74.9238 149.359 74.6309 149.477 74.3184 149.574C73.5957 149.77 72.7559 149.867 71.7988 149.867C69.8262 149.867 68.293 149.32 67.1992 148.227C66.125 147.113 65.5879 145.541 65.5879 143.51C65.5879 141.752 66.0469 140.287 66.9648 139.115C68 137.807 69.4551 137.152 71.3301 137.152C73.127 137.152 74.543 137.758 75.5781 138.969C76.5547 140.102 77.043 141.518 77.043 143.217C77.043 143.51 76.9355 143.764 76.7207 143.979C76.5254 144.193 76.2715 144.301 75.959 144.301H67.7852ZM71.3301 138.998C69.9043 138.998 68.8691 139.633 68.2246 140.902C67.9902 141.352 67.8438 141.889 67.7852 142.514H74.875C74.8164 141.381 74.3965 140.482 73.6152 139.818C72.9902 139.271 72.2285 138.998 71.3301 138.998ZM83.8691 147.846C85.6465 147.846 86.5254 147.289 86.5059 146.176C86.5059 145.824 86.3301 145.551 85.9785 145.355C85.627 145.16 85.1875 144.994 84.6602 144.857C84.1328 144.721 83.5566 144.574 82.9316 144.418C82.3066 144.262 81.7207 144.047 81.1738 143.773C80.627 143.5 80.1777 143.148 79.8262 142.719C79.4746 142.27 79.2988 141.723 79.2988 141.078C79.2988 140.434 79.3965 139.887 79.5918 139.438C79.7871 138.969 80.0801 138.568 80.4707 138.236C81.3105 137.514 82.4824 137.152 83.9863 137.152C85.1973 137.152 86.3594 137.348 87.4727 137.738C87.6875 137.816 87.8535 137.953 87.9707 138.148C88.1074 138.324 88.1758 138.52 88.1758 138.734C88.1758 138.93 88.0781 139.125 87.8828 139.32C87.707 139.516 87.5312 139.613 87.3555 139.613C87.1797 139.613 86.9648 139.574 86.7109 139.496C85.9492 139.262 85.1094 139.145 84.1914 139.145C83.2734 139.145 82.5801 139.301 82.1113 139.613C81.6426 139.926 81.4082 140.316 81.4082 140.785C81.4082 141.234 81.584 141.566 81.9355 141.781C82.2871 141.977 82.7266 142.152 83.2539 142.309C83.8008 142.465 84.3867 142.611 85.0117 142.748C85.6562 142.885 86.2422 143.09 86.7695 143.363C88.0195 144.008 88.6445 144.994 88.6445 146.322C88.6445 147.357 88.2539 148.188 87.4727 148.812C86.6523 149.516 85.4902 149.867 83.9863 149.867C82.3848 149.867 80.9395 149.506 79.6504 148.783C79.377 148.588 79.2305 148.354 79.2109 148.08C79.2109 147.787 79.2988 147.543 79.4746 147.348C79.6699 147.133 79.8652 147.025 80.0605 147.025C80.2559 147.025 80.5098 147.094 80.8223 147.23C81.7402 147.641 82.7559 147.846 83.8691 147.846Z" fill="white"/>
<path d="M47.9726 39.7315L52.1663 21.5816L65.522 34.5675L68.659 31.3411L65.522 34.5675C67.2931 36.2895 69.7258 37.1559 72.1867 36.9411L90.7442 35.3209L82.521 52.0357C81.4305 54.2523 81.3583 56.8337 82.3231 59.1077L89.5985 76.2563L71.1607 73.6008C68.7156 73.2486 66.2383 73.9776 64.3737 75.5979L50.3127 87.8165L47.1406 69.4605C46.72 67.0262 45.2611 64.8954 43.1439 63.6227L27.1783 54.0256L43.6557 45.3365C45.8408 44.1843 47.4165 42.1384 47.9726 39.7315ZM89.945 77.0729C89.9449 77.0727 89.9448 77.0725 89.9447 77.0723L89.945 77.0729ZM90.4753 76.3826C90.4757 76.3826 90.4761 76.3827 90.4766 76.3828L90.4753 76.3826Z" stroke="white" stroke-width="9"/>
<path d="M112 29.1647L123.051 48.7713C124.264 50.9233 126.353 52.4411 128.775 52.9297L150.837 57.3812L135.605 73.9502L138.918 76.9957L135.605 73.9502C133.933 75.7688 133.135 78.2247 133.418 80.6787L136.002 103.036L115.537 93.6701C113.291 92.642 110.709 92.642 108.463 93.6701L87.9976 103.036L90.5815 80.6787C90.8652 78.2247 90.0672 75.7688 88.3953 73.9502L73.1633 57.3812L95.2253 52.9297C97.6468 52.4411 99.7359 50.9233 100.949 48.7713L112 29.1647ZM136.104 103.918C136.104 103.917 136.104 103.917 136.104 103.917L136.104 103.918Z" fill="white" stroke="white" stroke-width="9"/>
<ellipse cx="103.385" cy="64.5" rx="4.38462" ry="9.5" fill="#E41849"/>
<ellipse cx="120.923" cy="64.5" rx="4.38462" ry="9.5" fill="#E41849"/>
<defs>
<filter id="filter0_d" x="0" y="1" width="170" height="173" filterUnits="userSpaceOnUse" color-interpolation-filters="sRGB">
<feFlood flood-opacity="0" result="BackgroundImageFix"/>
<feColorMatrix in="SourceAlpha" type="matrix" values="0 0 0 0 0 0 0 0 0 0 0 0 0 0 0 0 0 0 127 0"/>
<feOffset dy="4"/>
<feGaussianBlur stdDeviation="2"/>
<feColorMatrix type="matrix" values="0 0 0 0 0 0 0 0 0 0 0 0 0 0 0 0 0 0 0.25 0"/>
<feBlend mode="normal" in2="BackgroundImageFix" result="effect1_dropShadow"/>
<feBlend mode="normal" in="SourceGraphic" in2="effect1_dropShadow" result="shape"/>
</filter>
</defs>
</svg>
