<svg width="170" height="178" viewBox="0 0 170 178" fill="none" xmlns="http://www.w3.org/2000/svg">
<g filter="url(#filter0_d)">
<rect x="4" width="162" height="170" rx="20" fill="#E41849"/>
</g>
<path d="M29.9961 134.181C30.0742 134.376 30.1133 134.581 30.1133 134.796C30.1133 134.991 30.0156 135.196 29.8203 135.411C29.6445 135.626 29.3418 135.733 28.9121 135.733C28.502 135.733 28.1992 135.509 28.0039 135.06L26.4512 131.339H18.2773L16.7539 135.06C16.5586 135.509 16.2461 135.733 15.8164 135.733C15.4062 135.733 15.1035 135.626 14.9082 135.411C14.7324 135.196 14.6445 134.991 14.6445 134.796C14.6445 134.581 14.6836 134.376 14.7617 134.181L20.8555 119.737C21.1289 119.073 21.5977 118.741 22.2617 118.741H22.4961C23.1406 118.741 23.6094 119.073 23.9023 119.737L29.9961 134.181ZM25.6309 129.347L22.3789 121.524L19.127 129.347H25.6309ZM34.7715 125.392C35.9043 123.888 37.1641 123.136 38.5508 123.136H38.668C38.9609 123.136 39.2051 123.243 39.4004 123.458C39.6152 123.653 39.7227 123.907 39.7227 124.22C39.7227 124.532 39.6152 124.786 39.4004 124.981C39.1855 125.157 38.9219 125.245 38.6094 125.245H38.4922C37.6914 125.245 36.9785 125.44 36.3535 125.831C35.7285 126.222 35.2012 126.729 34.7715 127.354V134.649C34.7715 134.942 34.6641 135.196 34.4492 135.411C34.2344 135.626 33.9805 135.733 33.6875 135.733C33.3945 135.733 33.1406 135.626 32.9258 135.411C32.7109 135.196 32.6035 134.942 32.6035 134.649V124.366C32.6035 124.073 32.7012 123.819 32.8965 123.604C33.1113 123.37 33.375 123.253 33.6875 123.253C33.9805 123.253 34.2344 123.36 34.4492 123.575C34.6641 123.79 34.7715 124.054 34.7715 124.366V125.392ZM44.0293 125.392C45.1621 123.888 46.4219 123.136 47.8086 123.136H47.9258C48.2188 123.136 48.4629 123.243 48.6582 123.458C48.873 123.653 48.9805 123.907 48.9805 124.22C48.9805 124.532 48.873 124.786 48.6582 124.981C48.4434 125.157 48.1797 125.245 47.8672 125.245H47.75C46.9492 125.245 46.2363 125.44 45.6113 125.831C44.9863 126.222 44.459 126.729 44.0293 127.354V134.649C44.0293 134.942 43.9219 135.196 43.707 135.411C43.4922 135.626 43.2383 135.733 42.9453 135.733C42.6523 135.733 42.3984 135.626 42.1836 135.411C41.9688 135.196 41.8613 134.942 41.8613 134.649V124.366C41.8613 124.073 41.959 123.819 42.1543 123.604C42.3691 123.37 42.6328 123.253 42.9453 123.253C43.2383 123.253 43.4922 123.36 43.707 123.575C43.9219 123.79 44.0293 124.054 44.0293 124.366V125.392ZM51.5586 123.985C52.9062 123.399 54.3027 123.116 55.748 123.136C57.3691 123.136 58.6289 123.634 59.5273 124.63C60.3281 125.489 60.7383 126.563 60.7578 127.853V134.649C60.7578 134.942 60.6406 135.196 60.4062 135.411C60.1914 135.626 59.9277 135.733 59.6152 135.733C59.3223 135.733 59.0684 135.626 58.8535 135.411C58.6387 135.196 58.5312 134.942 58.5312 134.649V134.034C58.1016 134.483 57.5254 134.903 56.8027 135.294C56.0801 135.665 55.1621 135.851 54.0488 135.851C52.9355 135.851 52.0078 135.528 51.2656 134.884C50.5039 134.22 50.123 133.351 50.123 132.276C50.123 131.085 50.5723 130.147 51.4707 129.464C52.4473 128.722 53.834 128.36 55.6309 128.38H58.5312V128.175C58.5312 127.101 58.2676 126.339 57.7402 125.89C57.2324 125.44 56.4316 125.216 55.3379 125.216C54.4199 125.216 53.3555 125.401 52.1445 125.772C52.0273 125.812 51.8809 125.831 51.7051 125.831C51.5488 125.831 51.3828 125.753 51.207 125.597C51.0312 125.421 50.9336 125.157 50.9141 124.806C50.9141 124.435 51.1289 124.161 51.5586 123.985ZM52.3203 132.013C52.3203 133.302 53.1699 133.937 54.8691 133.917C55.6113 133.917 56.3047 133.741 56.9492 133.39C57.6133 133.019 58.1406 132.608 58.5312 132.159V130.138H55.9531C54.8203 130.138 53.9316 130.284 53.2871 130.577C52.6426 130.851 52.3203 131.329 52.3203 132.013ZM70.543 125.157C69.1367 125.157 67.8184 125.929 66.5879 127.472V134.649C66.5879 134.942 66.4805 135.196 66.2656 135.411C66.0508 135.626 65.7969 135.733 65.5039 135.733C65.2109 135.733 64.957 135.626 64.7422 135.411C64.5273 135.196 64.4199 134.942 64.4199 134.649V124.366C64.4199 124.054 64.5176 123.79 64.7129 123.575C64.9277 123.36 65.1914 123.253 65.5039 123.253C65.7969 123.253 66.0508 123.36 66.2656 123.575C66.4805 123.771 66.5879 124.034 66.5879 124.366V125.362C67.2324 124.698 67.7891 124.22 68.2578 123.927C69.1562 123.399 70.0156 123.136 70.8359 123.136C71.6758 123.136 72.3594 123.263 72.8867 123.517C73.4141 123.751 73.8633 124.093 74.2344 124.542C74.9766 125.421 75.3477 126.515 75.3477 127.823V134.649C75.3477 134.942 75.2402 135.196 75.0254 135.411C74.8105 135.626 74.5566 135.733 74.2637 135.733C73.9707 135.733 73.7168 135.626 73.502 135.411C73.2871 135.196 73.1797 134.942 73.1797 134.649V128.058C73.1797 127.159 72.9746 126.456 72.5645 125.948C72.1543 125.421 71.4805 125.157 70.543 125.157ZM88.1797 124.952V124.366C88.1797 124.073 88.2773 123.819 88.4727 123.604C88.6875 123.37 88.9414 123.253 89.2344 123.253C89.5273 123.253 89.7812 123.36 89.9961 123.575C90.2305 123.79 90.3477 124.054 90.3477 124.366V135.089C90.3477 137.12 89.8594 138.673 88.8828 139.747C87.9062 140.841 86.5195 141.388 84.7227 141.388C82.8086 141.388 81.0898 140.968 79.5664 140.128C79.293 139.952 79.1562 139.708 79.1562 139.396C79.1562 139.083 79.2441 138.819 79.4199 138.604C79.6152 138.409 79.8105 138.312 80.0059 138.312C80.2012 138.312 80.377 138.341 80.5332 138.399C81.7441 139.005 83.0625 139.308 84.4883 139.308C86.9492 139.308 88.1797 138.009 88.1797 135.411V133.8C87.0469 135.011 85.6797 135.616 84.0781 135.616C82.5547 135.616 81.2461 135.099 80.1523 134.063C78.8828 132.892 78.248 131.329 78.248 129.376C78.248 127.403 78.8828 125.831 80.1523 124.659C81.2461 123.624 82.5742 123.116 84.1367 123.136C85.6992 123.136 87.0469 123.741 88.1797 124.952ZM88.1797 126.886C87.7305 126.417 87.2129 126.007 86.627 125.655C86.0605 125.304 85.4258 125.128 84.7227 125.128C84.0195 125.128 83.4141 125.216 82.9062 125.392C82.418 125.567 81.9883 125.831 81.6172 126.183C80.8359 126.925 80.4453 127.989 80.4453 129.376C80.4453 131.446 81.2656 132.774 82.9062 133.36C83.4141 133.536 84.0195 133.624 84.7227 133.624C85.8945 133.624 87.0469 133.028 88.1797 131.837V126.886ZM95.5918 130.284C95.7285 131.358 96.1387 132.218 96.8223 132.862C97.5254 133.487 98.4824 133.8 99.6934 133.8C100.924 133.8 101.969 133.604 102.828 133.214C103.102 133.077 103.346 133.009 103.561 133.009C103.775 132.989 103.971 133.067 104.146 133.243C104.342 133.419 104.439 133.614 104.439 133.829C104.439 134.259 104.264 134.562 103.912 134.737C103.58 134.913 103.277 135.069 103.004 135.206C102.73 135.343 102.438 135.46 102.125 135.558C101.402 135.753 100.562 135.851 99.6055 135.851C97.6328 135.851 96.0996 135.304 95.0059 134.21C93.9316 133.097 93.3945 131.524 93.3945 129.493C93.3945 127.735 93.8535 126.271 94.7715 125.099C95.8066 123.79 97.2617 123.136 99.1367 123.136C100.934 123.136 102.35 123.741 103.385 124.952C104.361 126.085 104.85 127.501 104.85 129.2C104.85 129.493 104.742 129.747 104.527 129.962C104.332 130.177 104.078 130.284 103.766 130.284H95.5918ZM99.1367 124.981C97.7109 124.981 96.6758 125.616 96.0312 126.886C95.7969 127.335 95.6504 127.872 95.5918 128.497H102.682C102.623 127.364 102.203 126.466 101.422 125.802C100.797 125.255 100.035 124.981 99.1367 124.981ZM28.3555 156.628C28.4727 156.569 28.6484 156.54 28.8828 156.54C29.1172 156.54 29.3223 156.638 29.498 156.833C29.6738 157.009 29.7617 157.214 29.7617 157.448C29.7617 157.878 29.5762 158.19 29.2051 158.386C28.4629 158.815 27.6621 159.167 26.8027 159.44C25.9629 159.714 24.9375 159.851 23.7266 159.851C22.5352 159.851 21.4219 159.655 20.3867 159.265C19.3711 158.874 18.4922 158.308 17.75 157.565C16.1484 156.003 15.3477 153.894 15.3477 151.237C15.3477 148.601 16.1484 146.491 17.75 144.909C19.293 143.386 21.2949 142.624 23.7559 142.624C24.9473 142.624 25.9629 142.771 26.8027 143.063C27.6621 143.356 28.3164 143.63 28.7656 143.884C29.2148 144.118 29.4883 144.313 29.5859 144.47C29.7031 144.606 29.7617 144.792 29.7617 145.026C29.7617 145.261 29.6738 145.476 29.498 145.671C29.3223 145.847 29.1172 145.935 28.8828 145.935C28.668 145.935 28.4922 145.905 28.3555 145.847C27.7109 145.495 27.0469 145.222 26.3633 145.026C25.6992 144.812 24.8691 144.704 23.873 144.704C22.877 144.704 21.9688 144.88 21.1484 145.231C20.3477 145.563 19.6738 146.022 19.127 146.608C18.0527 147.78 17.5254 149.323 17.5449 151.237C17.5449 153.151 18.0723 154.694 19.127 155.866C20.2988 157.136 21.9102 157.771 23.9609 157.771C24.8984 157.771 25.6992 157.673 26.3633 157.478C27.0469 157.263 27.7109 156.979 28.3555 156.628ZM32.8086 143.063C32.8086 142.751 32.916 142.497 33.1309 142.302C33.3457 142.087 33.6094 141.979 33.9219 141.979C34.2344 141.979 34.4883 142.087 34.6836 142.302C34.8984 142.497 35.0059 142.751 35.0059 143.063V158.649C35.0059 158.942 34.8984 159.196 34.6836 159.411C34.4883 159.626 34.2344 159.733 33.9219 159.733C33.6094 159.733 33.3457 159.626 33.1309 159.411C32.916 159.196 32.8086 158.942 32.8086 158.649V143.063ZM39.4004 147.985C40.748 147.399 42.1445 147.116 43.5898 147.136C45.2109 147.136 46.4707 147.634 47.3691 148.63C48.1699 149.489 48.5801 150.563 48.5996 151.853V158.649C48.5996 158.942 48.4824 159.196 48.248 159.411C48.0332 159.626 47.7695 159.733 47.457 159.733C47.1641 159.733 46.9102 159.626 46.6953 159.411C46.4805 159.196 46.373 158.942 46.373 158.649V158.034C45.9434 158.483 45.3672 158.903 44.6445 159.294C43.9219 159.665 43.0039 159.851 41.8906 159.851C40.7773 159.851 39.8496 159.528 39.1074 158.884C38.3457 158.22 37.9648 157.351 37.9648 156.276C37.9648 155.085 38.4141 154.147 39.3125 153.464C40.2891 152.722 41.6758 152.36 43.4727 152.38H46.373V152.175C46.373 151.101 46.1094 150.339 45.582 149.89C45.0742 149.44 44.2734 149.216 43.1797 149.216C42.2617 149.216 41.1973 149.401 39.9863 149.772C39.8691 149.812 39.7227 149.831 39.5469 149.831C39.3906 149.831 39.2246 149.753 39.0488 149.597C38.873 149.421 38.7754 149.157 38.7559 148.806C38.7559 148.435 38.9707 148.161 39.4004 147.985ZM40.1621 156.013C40.1621 157.302 41.0117 157.937 42.7109 157.917C43.4531 157.917 44.1465 157.741 44.791 157.39C45.4551 157.019 45.9824 156.608 46.373 156.159V154.138H43.7949C42.6621 154.138 41.7734 154.284 41.1289 154.577C40.4844 154.851 40.1621 155.329 40.1621 156.013ZM56.1582 157.829C57.9355 157.829 58.8145 157.272 58.7949 156.159C58.7949 155.808 58.6191 155.534 58.2676 155.339C57.916 155.144 57.4766 154.978 56.9492 154.841C56.4219 154.704 55.8457 154.558 55.2207 154.401C54.5957 154.245 54.0098 154.03 53.4629 153.757C52.916 153.483 52.4668 153.132 52.1152 152.702C51.7637 152.253 51.5879 151.706 51.5879 151.062C51.5879 150.417 51.6855 149.87 51.8809 149.421C52.0762 148.952 52.3691 148.552 52.7598 148.22C53.5996 147.497 54.7715 147.136 56.2754 147.136C57.4863 147.136 58.6484 147.331 59.7617 147.722C59.9766 147.8 60.1426 147.937 60.2598 148.132C60.3965 148.308 60.4648 148.503 60.4648 148.718C60.4648 148.913 60.3672 149.108 60.1719 149.304C59.9961 149.499 59.8203 149.597 59.6445 149.597C59.4688 149.597 59.2539 149.558 59 149.479C58.2383 149.245 57.3984 149.128 56.4805 149.128C55.5625 149.128 54.8691 149.284 54.4004 149.597C53.9316 149.909 53.6973 150.3 53.6973 150.769C53.6973 151.218 53.873 151.55 54.2246 151.765C54.5762 151.96 55.0156 152.136 55.543 152.292C56.0898 152.448 56.6758 152.595 57.3008 152.731C57.9453 152.868 58.5312 153.073 59.0586 153.347C60.3086 153.991 60.9336 154.978 60.9336 156.306C60.9336 157.341 60.543 158.171 59.7617 158.796C58.9414 159.499 57.7793 159.851 56.2754 159.851C54.6738 159.851 53.2285 159.489 51.9395 158.767C51.666 158.571 51.5195 158.337 51.5 158.063C51.5 157.771 51.5879 157.526 51.7637 157.331C51.959 157.116 52.1543 157.009 52.3496 157.009C52.5449 157.009 52.7988 157.077 53.1113 157.214C54.0293 157.624 55.0449 157.829 56.1582 157.829ZM67.6426 157.829C69.4199 157.829 70.2988 157.272 70.2793 156.159C70.2793 155.808 70.1035 155.534 69.752 155.339C69.4004 155.144 68.9609 154.978 68.4336 154.841C67.9062 154.704 67.3301 154.558 66.7051 154.401C66.0801 154.245 65.4941 154.03 64.9473 153.757C64.4004 153.483 63.9512 153.132 63.5996 152.702C63.248 152.253 63.0723 151.706 63.0723 151.062C63.0723 150.417 63.1699 149.87 63.3652 149.421C63.5605 148.952 63.8535 148.552 64.2441 148.22C65.084 147.497 66.2559 147.136 67.7598 147.136C68.9707 147.136 70.1328 147.331 71.2461 147.722C71.4609 147.8 71.627 147.937 71.7441 148.132C71.8809 148.308 71.9492 148.503 71.9492 148.718C71.9492 148.913 71.8516 149.108 71.6562 149.304C71.4805 149.499 71.3047 149.597 71.1289 149.597C70.9531 149.597 70.7383 149.558 70.4844 149.479C69.7227 149.245 68.8828 149.128 67.9648 149.128C67.0469 149.128 66.3535 149.284 65.8848 149.597C65.416 149.909 65.1816 150.3 65.1816 150.769C65.1816 151.218 65.3574 151.55 65.709 151.765C66.0605 151.96 66.5 152.136 67.0273 152.292C67.5742 152.448 68.1602 152.595 68.7852 152.731C69.4297 152.868 70.0156 153.073 70.543 153.347C71.793 153.991 72.418 154.978 72.418 156.306C72.418 157.341 72.0273 158.171 71.2461 158.796C70.4258 159.499 69.2637 159.851 67.7598 159.851C66.1582 159.851 64.7129 159.489 63.4238 158.767C63.1504 158.571 63.0039 158.337 62.9844 158.063C62.9844 157.771 63.0723 157.526 63.248 157.331C63.4434 157.116 63.6387 157.009 63.834 157.009C64.0293 157.009 64.2832 157.077 64.5957 157.214C65.5137 157.624 66.5293 157.829 67.6426 157.829Z" fill="white"/>
<rect x="33" y="76" width="98" height="6" fill="white"/>
<rect x="37" y="86" width="90" height="17" fill="white"/>
<path d="M47.5 57L57.4593 77.25H37.5407L47.5 57Z" fill="white"/>
<path d="M82 49L96.7224 79H67.2776L82 49Z" fill="white"/>
<path d="M116.5 57L126.459 77.25H106.541L116.5 57Z" fill="white"/>
<circle cx="81.5" cy="40.5" r="16.5" fill="white"/>
<ellipse cx="48" cy="51.5" rx="11" ry="11.5" fill="white"/>
<ellipse rx="11" ry="11.5" transform="matrix(-1 0 0 1 117 51.5)" fill="white"/>
<ellipse cx="44" cy="49.5" rx="2" ry="4.5" fill="#E41849"/>
<ellipse cx="52" cy="49.5" rx="2" ry="4.5" fill="#E41849"/>
<ellipse cx="113" cy="49.5" rx="2" ry="4.5" fill="#E41849"/>
<ellipse cx="121" cy="49.5" rx="2" ry="4.5" fill="#E41849"/>
<ellipse cx="79.5777" cy="21.6054" rx="2.87075" ry="4.68385" transform="rotate(-16.3825 79.5777 21.6054)" fill="white"/>
<ellipse cx="85.3933" cy="23.9064" rx="2.87075" ry="4.68385" transform="rotate(53.5908 85.3933 23.9064)" fill="white"/>
<ellipse cx="76" cy="39.5" rx="3" ry="6.5" fill="#E41849"/>
<ellipse cx="88" cy="39.5" rx="3" ry="6.5" fill="#E41849"/>
<defs>
<filter id="filter0_d" x="0" y="0" width="170" height="178" filterUnits="userSpaceOnUse" color-interpolation-filters="sRGB">
<feFlood flood-opacity="0" result="BackgroundImageFix"/>
<feColorMatrix in="SourceAlpha" type="matrix" values="0 0 0 0 0 0 0 0 0 0 0 0 0 0 0 0 0 0 127 0"/>
<feOffset dy="4"/>
<feGaussianBlur stdDeviation="2"/>
<feColorMatrix type="matrix" values="0 0 0 0 0 0 0 0 0 0 0 0 0 0 0 0 0 0 0.25 0"/>
<feBlend mode="normal" in2="BackgroundImageFix" result="effect1_dropShadow"/>
<feBlend mode="normal" in="SourceGraphic" in2="effect1_dropShadow" result="shape"/>
</filter>
</defs>
</svg>
