<svg width="170" height="155" viewBox="0 0 170 155" fill="none" xmlns="http://www.w3.org/2000/svg">
<g filter="url(#filter0_d)">
<rect x="4" width="162" height="147" rx="20" fill="#F9B43C"/>
</g>
<path d="M23.3828 108.184C26.1758 108.184 27.582 107.256 27.6016 105.4C27.6016 104.639 27.0645 104.033 25.9902 103.584C25.5215 103.389 24.9746 103.213 24.3496 103.057C23.7441 102.9 23.1289 102.734 22.5039 102.559C21.8789 102.383 21.2539 102.188 20.6289 101.973C20.0039 101.738 19.457 101.445 18.9883 101.094C17.9336 100.293 17.3965 99.2383 17.377 97.9297C17.377 96.5234 17.9141 95.3711 18.9883 94.4727C20.1406 93.4961 21.6836 93.0078 23.6172 93.0078C25.375 93.0078 26.957 93.2715 28.3633 93.7988C28.8125 93.9551 29.0469 94.2773 29.0664 94.7656C29.0664 95 28.9785 95.2246 28.8027 95.4395C28.6465 95.6543 28.4609 95.7617 28.2461 95.7617C28.0508 95.7617 27.7773 95.7031 27.4258 95.5859C26.3711 95.2148 25.1797 95.0293 23.8516 95.0293C22.6211 95.0293 21.6055 95.2637 20.8047 95.7324C19.9844 96.2207 19.5742 96.8945 19.5742 97.7539C19.5742 98.6523 20.1016 99.3457 21.1562 99.834C21.6445 100.049 22.1914 100.234 22.7969 100.391C23.4023 100.527 24.0273 100.674 24.6719 100.83C25.3164 100.986 25.9316 101.182 26.5176 101.416C27.123 101.631 27.6699 101.904 28.1582 102.236C29.2129 102.998 29.75 104.111 29.7695 105.576C29.7695 106.943 29.2129 108.057 28.0996 108.916C26.9668 109.795 25.4727 110.234 23.6172 110.234C21.5859 110.234 19.6816 109.854 17.9043 109.092C17.7285 109.014 17.5723 108.887 17.4355 108.711C17.2988 108.516 17.2305 108.301 17.2305 108.066C17.2305 107.832 17.3184 107.617 17.4941 107.422C17.6699 107.207 17.8652 107.1 18.0801 107.1C18.3145 107.1 18.5977 107.178 18.9297 107.334C19.2812 107.49 19.8477 107.676 20.6289 107.891C21.4102 108.086 22.3281 108.184 23.3828 108.184ZM34.1348 104.668C34.2715 105.742 34.6816 106.602 35.3652 107.246C36.0684 107.871 37.0254 108.184 38.2363 108.184C39.4668 108.184 40.5117 107.988 41.3711 107.598C41.6445 107.461 41.8887 107.393 42.1035 107.393C42.3184 107.373 42.5137 107.451 42.6895 107.627C42.8848 107.803 42.9824 107.998 42.9824 108.213C42.9824 108.643 42.8066 108.945 42.4551 109.121C42.123 109.297 41.8203 109.453 41.5469 109.59C41.2734 109.727 40.9805 109.844 40.668 109.941C39.9453 110.137 39.1055 110.234 38.1484 110.234C36.1758 110.234 34.6426 109.688 33.5488 108.594C32.4746 107.48 31.9375 105.908 31.9375 103.877C31.9375 102.119 32.3965 100.654 33.3145 99.4824C34.3496 98.1738 35.8047 97.5195 37.6797 97.5195C39.4766 97.5195 40.8926 98.125 41.9277 99.3359C42.9043 100.469 43.3926 101.885 43.3926 103.584C43.3926 103.877 43.2852 104.131 43.0703 104.346C42.875 104.561 42.6211 104.668 42.3086 104.668H34.1348ZM37.6797 99.3652C36.2539 99.3652 35.2188 100 34.5742 101.27C34.3398 101.719 34.1934 102.256 34.1348 102.881H41.2246C41.166 101.748 40.7461 100.85 39.9648 100.186C39.3398 99.6387 38.5781 99.3652 37.6797 99.3652ZM52.4453 99.541C51.0391 99.541 49.7207 100.312 48.4902 101.855V109.033C48.4902 109.326 48.3828 109.58 48.168 109.795C47.9531 110.01 47.6992 110.117 47.4062 110.117C47.1133 110.117 46.8594 110.01 46.6445 109.795C46.4297 109.58 46.3223 109.326 46.3223 109.033V98.75C46.3223 98.4375 46.4199 98.1738 46.6152 97.959C46.8301 97.7441 47.0938 97.6367 47.4062 97.6367C47.6992 97.6367 47.9531 97.7441 48.168 97.959C48.3828 98.1543 48.4902 98.418 48.4902 98.75V99.7461C49.1348 99.082 49.6914 98.6035 50.1602 98.3105C51.0586 97.7832 51.918 97.5195 52.7383 97.5195C53.5781 97.5195 54.2617 97.6465 54.7891 97.9004C55.3164 98.1348 55.7656 98.4766 56.1367 98.9258C56.8789 99.8047 57.25 100.898 57.25 102.207V109.033C57.25 109.326 57.1426 109.58 56.9277 109.795C56.7129 110.01 56.459 110.117 56.166 110.117C55.873 110.117 55.6191 110.01 55.4043 109.795C55.1895 109.58 55.082 109.326 55.082 109.033V102.441C55.082 101.543 54.877 100.84 54.4668 100.332C54.0566 99.8047 53.3828 99.541 52.4453 99.541ZM70.082 108.418C68.8906 109.629 67.5234 110.234 65.9805 110.234C64.457 110.234 63.1289 109.697 61.9961 108.623C60.7852 107.412 60.1699 105.83 60.1504 103.877C60.1504 101.963 60.7656 100.391 61.9961 99.1602C63.1094 98.0469 64.4375 97.5 65.9805 97.5195C67.5234 97.5195 68.8906 98.125 70.082 99.3359V93.4473C70.082 93.1348 70.1797 92.8809 70.375 92.6855C70.5898 92.4707 70.8535 92.3633 71.166 92.3633C71.4785 92.3633 71.7324 92.4707 71.9277 92.6855C72.1426 92.8809 72.25 93.1348 72.25 93.4473V109.033C72.25 109.326 72.1426 109.58 71.9277 109.795C71.7324 110.01 71.4785 110.117 71.166 110.117C70.8535 110.117 70.5898 110.01 70.375 109.795C70.1797 109.58 70.082 109.326 70.082 109.033V108.418ZM70.082 101.357C68.9883 100.146 67.7188 99.5508 66.2734 99.5703C64.4375 99.5703 63.2363 100.381 62.6699 102.002C62.4746 102.549 62.3672 103.174 62.3477 103.877C62.3477 105.244 62.7188 106.328 63.4609 107.129C64.1445 107.852 65.082 108.203 66.2734 108.184C67.7188 108.184 68.9883 107.588 70.082 106.396V101.357ZM31.3809 133.033C31.3809 133.326 31.2734 133.58 31.0586 133.795C30.8633 134.01 30.5996 134.117 30.2676 134.117C29.9551 134.117 29.6914 134.02 29.4766 133.824C29.2812 133.629 29.1836 133.365 29.1836 133.033V132.301C29.1836 131.012 29.0371 130.064 28.7441 129.459C28.4707 128.854 28.0801 128.375 27.5723 128.023C27.084 127.652 26.3809 127.467 25.4629 127.467H20.5117V133.033C20.5117 133.326 20.4043 133.58 20.1895 133.795C19.9746 134.01 19.7109 134.117 19.3984 134.117C19.1055 134.117 18.8516 134.01 18.6367 133.795C18.4219 133.58 18.3145 133.326 18.3145 133.033V118.355C18.3145 118.062 18.4219 117.809 18.6367 117.594C18.8516 117.359 19.1055 117.242 19.3984 117.242H24.9941C27.1816 117.242 28.8418 117.711 29.9746 118.648C31.0293 119.527 31.5469 120.68 31.5273 122.105C31.5273 123.023 31.2637 123.893 30.7363 124.713C30.2285 125.514 29.4375 126.09 28.3633 126.441C29.5156 126.734 30.3555 127.574 30.8828 128.961C31.2344 129.859 31.4004 130.855 31.3809 131.949V133.033ZM24.8477 125.387C26.1953 125.387 27.2793 125.133 28.0996 124.625C28.9199 124.098 29.3301 123.316 29.3301 122.281C29.3301 121.324 29.0078 120.602 28.3633 120.113C27.6016 119.566 26.3906 119.293 24.7305 119.293H20.5117V125.387H24.8477ZM36.4492 128.668C36.5859 129.742 36.9961 130.602 37.6797 131.246C38.3828 131.871 39.3398 132.184 40.5508 132.184C41.7812 132.184 42.8262 131.988 43.6855 131.598C43.959 131.461 44.2031 131.393 44.418 131.393C44.6328 131.373 44.8281 131.451 45.0039 131.627C45.1992 131.803 45.2969 131.998 45.2969 132.213C45.2969 132.643 45.1211 132.945 44.7695 133.121C44.4375 133.297 44.1348 133.453 43.8613 133.59C43.5879 133.727 43.2949 133.844 42.9824 133.941C42.2598 134.137 41.4199 134.234 40.4629 134.234C38.4902 134.234 36.957 133.688 35.8633 132.594C34.7891 131.48 34.252 129.908 34.252 127.877C34.252 126.119 34.7109 124.654 35.6289 123.482C36.6641 122.174 38.1191 121.52 39.9941 121.52C41.791 121.52 43.207 122.125 44.2422 123.336C45.2188 124.469 45.707 125.885 45.707 127.584C45.707 127.877 45.5996 128.131 45.3848 128.346C45.1895 128.561 44.9355 128.668 44.623 128.668H36.4492ZM39.9941 123.365C38.5684 123.365 37.5332 124 36.8887 125.27C36.6543 125.719 36.5078 126.256 36.4492 126.881H43.5391C43.4805 125.748 43.0605 124.85 42.2793 124.186C41.6543 123.639 40.8926 123.365 39.9941 123.365ZM52.5332 132.213C54.3105 132.213 55.1895 131.656 55.1699 130.543C55.1699 130.191 54.9941 129.918 54.6426 129.723C54.291 129.527 53.8516 129.361 53.3242 129.225C52.7969 129.088 52.2207 128.941 51.5957 128.785C50.9707 128.629 50.3848 128.414 49.8379 128.141C49.291 127.867 48.8418 127.516 48.4902 127.086C48.1387 126.637 47.9629 126.09 47.9629 125.445C47.9629 124.801 48.0605 124.254 48.2559 123.805C48.4512 123.336 48.7441 122.936 49.1348 122.604C49.9746 121.881 51.1465 121.52 52.6504 121.52C53.8613 121.52 55.0234 121.715 56.1367 122.105C56.3516 122.184 56.5176 122.32 56.6348 122.516C56.7715 122.691 56.8398 122.887 56.8398 123.102C56.8398 123.297 56.7422 123.492 56.5469 123.688C56.3711 123.883 56.1953 123.98 56.0195 123.98C55.8438 123.98 55.6289 123.941 55.375 123.863C54.6133 123.629 53.7734 123.512 52.8555 123.512C51.9375 123.512 51.2441 123.668 50.7754 123.98C50.3066 124.293 50.0723 124.684 50.0723 125.152C50.0723 125.602 50.248 125.934 50.5996 126.148C50.9512 126.344 51.3906 126.52 51.918 126.676C52.4648 126.832 53.0508 126.979 53.6758 127.115C54.3203 127.252 54.9062 127.457 55.4336 127.73C56.6836 128.375 57.3086 129.361 57.3086 130.689C57.3086 131.725 56.918 132.555 56.1367 133.18C55.3164 133.883 54.1543 134.234 52.6504 134.234C51.0488 134.234 49.6035 133.873 48.3145 133.15C48.041 132.955 47.8945 132.721 47.875 132.447C47.875 132.154 47.9629 131.91 48.1387 131.715C48.334 131.5 48.5293 131.393 48.7246 131.393C48.9199 131.393 49.1738 131.461 49.4863 131.598C50.4043 132.008 51.4199 132.213 52.5332 132.213ZM64.8379 132.213C66.2441 132.213 67.5625 131.451 68.793 129.928V122.721C68.793 122.428 68.8906 122.174 69.0859 121.959C69.3008 121.744 69.5645 121.637 69.877 121.637C70.1699 121.637 70.4238 121.744 70.6387 121.959C70.8535 122.154 70.9609 122.408 70.9609 122.721V133.004C70.9609 133.316 70.8535 133.58 70.6387 133.795C70.4434 134.01 70.1895 134.117 69.877 134.117C69.584 134.117 69.3301 134.01 69.1152 133.795C68.9004 133.58 68.793 133.316 68.793 133.004V132.037C68.1484 132.701 67.5918 133.17 67.123 133.443C66.2246 133.971 65.3555 134.234 64.5156 134.234C63.6953 134.234 63.0117 134.107 62.4648 133.854C61.9375 133.6 61.498 133.268 61.1465 132.857C60.4043 131.979 60.0332 130.875 60.0332 129.547V122.721C60.0332 122.428 60.1309 122.174 60.3262 121.959C60.541 121.744 60.8047 121.637 61.1172 121.637C61.4102 121.637 61.6641 121.744 61.8789 121.959C62.0938 122.154 62.2012 122.408 62.2012 122.721V129.283C62.2012 130.182 62.4062 130.895 62.8164 131.422C63.2266 131.949 63.9004 132.213 64.8379 132.213ZM74.916 117.447C74.916 117.135 75.0234 116.881 75.2383 116.686C75.4531 116.471 75.7168 116.363 76.0293 116.363C76.3418 116.363 76.5957 116.471 76.791 116.686C77.0059 116.881 77.1133 117.135 77.1133 117.447V133.033C77.1133 133.326 77.0059 133.58 76.791 133.795C76.5957 134.01 76.3418 134.117 76.0293 134.117C75.7168 134.117 75.4531 134.01 75.2383 133.795C75.0234 133.58 74.916 133.326 74.916 133.033V117.447ZM85.5215 132.301C85.9512 132.301 86.2539 132.271 86.4297 132.213C86.625 132.135 86.8301 132.096 87.0449 132.096C87.2598 132.096 87.4551 132.184 87.6309 132.359C87.8066 132.516 87.8945 132.76 87.8945 133.092C87.8945 133.404 87.7383 133.629 87.4258 133.766C86.7422 134.078 86.1562 134.234 85.668 134.234C85.1797 134.234 84.7305 134.205 84.3203 134.146C83.9297 134.107 83.5488 133.98 83.1777 133.766C82.2988 133.258 81.8594 132.359 81.8594 131.07V123.629H80.1602C79.8672 123.629 79.7109 123.473 79.6914 123.16C79.6914 123.023 79.7695 122.896 79.9258 122.779L83.1777 119.586C83.3145 119.449 83.4512 119.381 83.5879 119.381C83.7246 119.361 83.832 119.4 83.9102 119.498C83.9883 119.596 84.0273 119.713 84.0273 119.85V121.754H86.752C87.0254 121.754 87.25 121.842 87.4258 122.018C87.6016 122.193 87.6895 122.418 87.6895 122.691C87.6895 122.965 87.6016 123.189 87.4258 123.365C87.25 123.541 87.0254 123.629 86.752 123.629H84.0273V130.895C84.0273 131.5 84.2129 131.91 84.584 132.125C84.7793 132.242 85.0918 132.301 85.5215 132.301ZM94.1641 132.213C95.9414 132.213 96.8203 131.656 96.8008 130.543C96.8008 130.191 96.625 129.918 96.2734 129.723C95.9219 129.527 95.4824 129.361 94.9551 129.225C94.4277 129.088 93.8516 128.941 93.2266 128.785C92.6016 128.629 92.0156 128.414 91.4688 128.141C90.9219 127.867 90.4727 127.516 90.1211 127.086C89.7695 126.637 89.5938 126.09 89.5938 125.445C89.5938 124.801 89.6914 124.254 89.8867 123.805C90.082 123.336 90.375 122.936 90.7656 122.604C91.6055 121.881 92.7773 121.52 94.2812 121.52C95.4922 121.52 96.6543 121.715 97.7676 122.105C97.9824 122.184 98.1484 122.32 98.2656 122.516C98.4023 122.691 98.4707 122.887 98.4707 123.102C98.4707 123.297 98.373 123.492 98.1777 123.688C98.002 123.883 97.8262 123.98 97.6504 123.98C97.4746 123.98 97.2598 123.941 97.0059 123.863C96.2441 123.629 95.4043 123.512 94.4863 123.512C93.5684 123.512 92.875 123.668 92.4062 123.98C91.9375 124.293 91.7031 124.684 91.7031 125.152C91.7031 125.602 91.8789 125.934 92.2305 126.148C92.582 126.344 93.0215 126.52 93.5488 126.676C94.0957 126.832 94.6816 126.979 95.3066 127.115C95.9512 127.252 96.5371 127.457 97.0645 127.73C98.3145 128.375 98.9395 129.361 98.9395 130.689C98.9395 131.725 98.5488 132.555 97.7676 133.18C96.9473 133.883 95.7852 134.234 94.2812 134.234C92.6797 134.234 91.2344 133.873 89.9453 133.15C89.6719 132.955 89.5254 132.721 89.5059 132.447C89.5059 132.154 89.5938 131.91 89.7695 131.715C89.9648 131.5 90.1602 131.393 90.3555 131.393C90.5508 131.393 90.8047 131.461 91.1172 131.598C92.0352 132.008 93.0508 132.213 94.1641 132.213Z" fill="white"/>
<ellipse cx="123.314" cy="23.5177" rx="4.13645" ry="6.74894" transform="rotate(-16.3825 123.314 23.5177)" fill="white"/>
<ellipse cx="131.694" cy="26.8331" rx="4.13645" ry="6.74894" transform="rotate(53.5908 131.694 26.8331)" fill="white"/>
<circle cx="126.685" cy="55.3154" r="27.6846" fill="white"/>
<ellipse cx="117.973" cy="49.8992" rx="4.13645" ry="9.95848" fill="#F9B43C"/>
<ellipse cx="135.003" cy="50.0779" rx="4.13645" ry="9.95848" fill="#F9B43C"/>
<rect x="57" y="47" width="23" height="13" fill="white"/>
<circle cx="44.5" cy="53.5" r="27.5" fill="white"/>
<path d="M28.8918 55.7298L40.7837 64.6487L59.3648 46.0676" stroke="#F9B43C" stroke-width="6"/>
<path d="M97.1582 51.964C98.117 52.7636 98.117 54.2364 97.1582 55.036L82.0309 67.6514C80.7284 68.7376 78.75 67.8114 78.75 66.1154L78.75 40.8846C78.75 39.1886 80.7284 38.2624 82.0309 39.3486L97.1582 51.964Z" fill="white"/>
<defs>
<filter id="filter0_d" x="0" y="0" width="170" height="155" filterUnits="userSpaceOnUse" color-interpolation-filters="sRGB">
<feFlood flood-opacity="0" result="BackgroundImageFix"/>
<feColorMatrix in="SourceAlpha" type="matrix" values="0 0 0 0 0 0 0 0 0 0 0 0 0 0 0 0 0 0 127 0"/>
<feOffset dy="4"/>
<feGaussianBlur stdDeviation="2"/>
<feColorMatrix type="matrix" values="0 0 0 0 0 0 0 0 0 0 0 0 0 0 0 0 0 0 0.25 0"/>
<feBlend mode="normal" in2="BackgroundImageFix" result="effect1_dropShadow"/>
<feBlend mode="normal" in="SourceGraphic" in2="effect1_dropShadow" result="shape"/>
</filter>
</defs>
</svg>
